<svg width="500" height="430" viewBox="0 0 406 306" fill="none" xmlns="http://www.w3.org/2000/svg">
<g clip-path="url(#clip0_192_43)">
<path opacity="0.18" d="M387.763 221.069C386.41 228.954 384.425 236.717 381.826 244.282C380.689 247.581 379.398 251.05 377.885 254.592C369.298 274.689 354.075 297.1 327.842 304.254C293.472 313.626 196.998 281.462 141.973 297.64C90.1507 312.881 58.1518 301.826 39.3971 283.339C36.3045 280.285 33.4898 276.962 30.9865 273.41C17.0371 253.648 14.4156 229.918 17.2134 219.244C21.5239 202.792 26.841 186.301 26.9888 169.133C27.131 151.169 20.8358 133.506 20.1648 115.417C18.419 69.6332 50.5715 24.6801 94.4669 11.5552C113.233 5.93679 128.587 0.181877 148.229 0.0397098C188.035 -0.301491 282.434 0.0397068 328.951 67.7111C337.265 79.801 349.344 88.8371 358.613 100.21C371.033 115.451 379.227 133.83 384.203 152.846C389.998 175.007 391.436 198.505 387.763 221.069Z" fill="#F87102"/>
<path d="M381.826 244.283C380.689 247.581 379.398 251.05 377.886 254.593C372.489 254.746 367.081 254.888 361.69 255.047C358.136 255.144 354.36 255.309 351.454 257.322C345.926 261.115 350.715 263.788 350.1 267.558C349.384 272.022 344.863 272.943 340.513 272.961C325.511 273.023 310.999 277.834 296.276 280.734C281.553 283.634 265.471 284.465 252.369 277.157C251.465 276.663 250.527 276.048 250.186 275.076C249.566 273.33 251.164 271.636 252.688 270.583C256.061 268.276 259.844 266.634 263.834 265.744C266.188 265.215 268.673 264.925 270.732 263.657C272.79 262.389 274.246 259.705 273.217 257.521C239.036 259.648 204.925 262.647 170.885 266.518C127.098 271.499 83.7878 280.166 39.8298 283.299L39.4204 283.339C36.3277 280.285 33.5131 276.962 31.0098 273.41C31.1933 273.145 31.3967 272.894 31.6182 272.659C33.7849 270.345 36.9182 269.247 39.9492 268.303C56.8557 263.071 74.4389 260.421 91.9482 257.783C178.954 244.669 267.007 235.332 355.042 241.496C363.987 242.116 372.927 243.02 381.826 244.283Z" fill="url(#paint0_linear_192_43)"/>
<path opacity="0.5" d="M175.184 37.7141H148.206V242.73H175.184V37.7141Z" fill="#F87102"/>
<path opacity="0.5" d="M234.99 101.399H208.013V240.518H234.99V101.399Z" fill="#F87102"/>
<path opacity="0.5" d="M284.772 147.7H257.794V240.518H284.772V147.7Z" fill="#F87102"/>
<path d="M86.1362 191.868L165.027 203.566V268.235H174.035V272.062H153.279V269.6H162.554V215.98L87.9559 201.559V253.751H98.3398V255.525H77.4355V253.478H86.1362V191.868Z" fill="white"/>
<path d="M84.902 191.868L163.799 203.566V268.235H172.807V272.062H152.045V269.6H161.325V215.98L86.7274 201.559V253.751H97.1113V255.525H76.207V253.478H84.902V191.868Z" fill="url(#paint1_linear_192_43)"/>
<path d="M304.977 193.262L306.296 258.056H315.076L317.607 206.557L323.14 258.056L333.2 259.745L335.508 191.141L304.977 193.262Z" fill="#F87102"/>
<path d="M304.977 193.262L306.296 258.056H315.076L317.607 206.557L323.14 258.056L333.2 259.745L335.508 191.141L304.977 193.262Z" fill="url(#paint2_linear_192_43)"/>
<path d="M327.183 257.049V196.992L335.508 191.141L332.699 258.056L327.183 257.049Z" fill="url(#paint3_linear_192_43)"/>
<path d="M294.371 139.654C294.371 139.654 294.371 139.739 294.371 139.926C294.587 144.868 294.94 149.827 295.508 154.746C295.753 156.827 295.742 159.949 296.811 161.82C298.386 164.573 305.739 161.422 308.059 160.364C311.505 158.789 314.667 156.668 317.817 154.558C318.068 154.421 318.282 154.226 318.443 153.99C318.557 153.752 318.614 153.491 318.608 153.228C318.875 148.027 317.105 142.927 313.672 139.011C310.915 142.544 307.853 145.828 304.522 148.826L304.078 146.551L302.748 139.727C302.35 137.697 302.6 136.315 300.371 137.151C298.34 137.913 296.361 138.818 294.371 139.654Z" fill="#F87102"/>
<path d="M294.376 139.926C294.552 143.97 294.82 148.013 295.212 152.045C295.525 155.303 295.11 163.651 299.977 163.048C303.873 162.571 307.216 160.114 310.947 158.92C312.295 158.488 313.722 158.209 314.928 157.487C316.622 156.362 317.838 154.647 318.34 152.676C318.823 150.723 319.064 148.717 319.056 146.705C315.701 148.036 312.966 150.526 310.134 152.767C308.293 154.325 306.231 155.601 304.015 156.554C301.427 157.572 300.546 157.441 300.66 154.541C300.844 149.826 300.203 145.115 298.766 140.62C298.715 140.406 298.607 140.21 298.453 140.052C298.242 139.918 297.991 139.862 297.742 139.892C296.628 139.898 295.496 139.898 294.376 139.926Z" fill="url(#paint4_linear_192_43)"/>
<path d="M328.997 135.946C331.334 137.12 333.612 138.411 335.821 139.812C340.518 142.821 339.676 144.22 338.806 149.412C336.975 160.526 336.062 171.773 336.077 183.037C336.077 185.681 336.253 188.593 335.508 191.163C335.019 192.869 333.893 194.24 333.768 196.014C326.523 197.009 309.941 200.74 304.971 193.29C300.222 186.165 308.769 160.842 307.188 149.599C305.607 138.357 320.171 137.089 320.171 137.089L328.997 135.946Z" fill="#F87102"/>
<path d="M319.011 187.882L332.142 196.742L334.291 194.001C335.56 189.434 336.152 184.705 336.048 179.966C335.73 172.892 336.082 175.417 336.082 175.417L317.606 187.103L319.011 187.882Z" fill="url(#paint5_linear_192_43)"/>
<path d="M312.477 124.987C312.355 127.344 313.037 129.671 314.411 131.59C314.626 132.059 314.945 132.473 315.343 132.801C316.105 133.335 317.135 133.165 318.056 133.017C318.268 132.96 318.492 132.96 318.704 133.017C319.222 133.21 319.273 133.91 319.273 134.467L319.131 137.043C319.075 137.396 319.137 137.758 319.307 138.072C319.483 138.288 319.721 138.443 319.989 138.516C320.94 138.83 321.958 138.879 322.933 138.657C323.909 138.436 324.806 137.952 325.528 137.259C325.896 136.929 326.194 136.529 326.404 136.082C326.573 135.654 326.68 135.204 326.722 134.746C327.035 132.289 326.779 129.787 326.95 127.313C327.092 125.26 327.519 123.179 327.132 121.155C326.93 120.056 326.462 119.023 325.768 118.148C325.074 117.272 324.175 116.58 323.151 116.133C321.098 115.303 318.761 115.673 316.629 116.275C315.603 116.565 314.593 116.908 313.603 117.305C313.12 117.435 312.701 117.739 312.426 118.158C312.034 118.948 312.46 120.097 312.477 120.944C312.5 122.303 312.477 123.645 312.477 124.987Z" fill="#FFBBAB"/>
<path d="M312.466 114.848C312.244 115.349 311.897 115.787 311.653 116.27C311.363 116.741 311.265 117.304 311.38 117.845C311.53 118.266 311.803 118.633 312.164 118.897C313.87 120.296 316.219 120.603 318.42 120.467C319.044 120.41 319.672 120.41 320.296 120.467C320.929 120.524 321.519 120.808 321.957 121.268C322.605 122.019 322.565 123.117 322.77 124.083C322.776 124.145 322.802 124.203 322.844 124.248C322.88 124.27 322.921 124.284 322.963 124.288C323.663 124.379 324.317 123.549 324.959 123.827C325.117 123.917 325.249 124.045 325.342 124.201C325.434 124.356 325.485 124.533 325.488 124.715C325.539 125.144 325.477 125.579 325.306 125.977C325.22 126.13 325.166 126.298 325.147 126.472C325.153 126.592 325.182 126.71 325.232 126.819L325.676 128.041C325.783 128.503 326.059 128.909 326.449 129.179C326.984 129.446 327.587 129.15 328.127 128.849C328.481 128.67 328.79 128.413 329.031 128.098C329.193 127.827 329.303 127.528 329.355 127.217C330.043 124.18 330.095 121.035 330.095 117.925C330.139 117.197 330.036 116.468 329.793 115.781C329.196 114.41 327.604 113.79 326.137 113.472C323.421 112.998 320.663 112.807 317.908 112.903C317.045 112.867 316.181 112.928 315.332 113.085C314.476 113.247 313.697 113.684 313.114 114.331" fill="#963637"/>
<path d="M316.754 127.876C317.201 128.092 317.548 128.473 317.72 128.94C317.732 128.963 317.737 128.988 317.737 129.014C317.737 129.039 317.732 129.064 317.72 129.087C317.702 129.105 317.681 129.119 317.658 129.127C317.634 129.136 317.609 129.14 317.584 129.139C316.637 129.204 315.687 129.204 314.741 129.139C313.996 129.113 313.264 128.935 312.591 128.615C312.538 128.592 312.493 128.555 312.46 128.507C312.447 128.461 312.447 128.412 312.46 128.365C312.47 128.176 312.518 127.991 312.601 127.821C312.684 127.65 312.8 127.498 312.943 127.374C313.085 127.249 313.251 127.154 313.431 127.095C313.611 127.036 313.801 127.013 313.99 127.029C314.966 127.087 315.913 127.378 316.754 127.876V127.876Z" fill="#963637"/>
<path d="M326.705 134.763C326.705 134.763 328.712 136.173 328.661 137.703C328.61 139.233 317.714 169.958 317.714 169.958C317.714 169.958 317.458 140.569 317.714 139.193C318.088 137.869 318.583 136.582 319.193 135.349C319.193 135.349 323.537 138.476 326.705 134.763Z" fill="white"/>
<path d="M323.14 137.544L323.862 139.921L322.633 140.95L322.048 157.623L317.714 169.941L317.606 157.413L321.331 140.87L319.972 138.539L321.763 137.544H323.14Z" fill="#212741"/>
<path d="M315.081 180.899C316.366 182.525 317.825 184.007 319.431 185.317C319.756 185.585 320.091 185.858 320.432 186.102C320.788 186.426 321.235 186.634 321.712 186.699C322.037 186.685 322.358 186.61 322.656 186.477C328.996 184.004 335.229 181.212 341.285 178.124C343.827 176.816 346.619 175.11 347.154 172.306C347.289 171.331 347.268 170.34 347.091 169.372C346.128 162.282 344.273 155.342 341.57 148.718C340.802 146.841 339.864 143.23 337.845 142.019L337.612 141.894L337.327 141.757C334.62 140.779 332.283 143.463 331.538 145.738C330.492 148.98 330.998 152.505 331.845 155.804C332.693 159.102 333.864 162.326 334.16 165.721C334.235 166.186 334.188 166.662 334.023 167.103C333.767 167.533 333.407 167.893 332.977 168.149L315.081 180.899Z" fill="#F87102"/>
<path d="M315.081 258.056L314.604 262.827L311.601 263.395L310.253 262.207L307.979 264.027H298.931C298.931 264.027 296.657 260.046 301.621 258.727L306.608 257.379L315.081 258.056Z" fill="#212741"/>
<path d="M332.71 258.056L332.232 262.827L329.23 263.395L327.882 262.207L325.607 264.027H316.554C316.554 264.027 314.28 260.046 319.244 258.727L324.231 257.379L332.71 258.056Z" fill="#212741"/>
<path d="M317.606 206.557L313.575 203.287L310.726 257.368L315.076 258.056L317.606 206.557Z" fill="url(#paint6_linear_192_43)"/>
<path d="M319.426 185.312C319.75 185.579 320.085 185.852 320.427 186.096C320.783 186.42 321.229 186.629 321.706 186.694C322.032 186.679 322.352 186.604 322.65 186.472C328.991 183.998 335.223 181.206 341.28 178.118C343.822 176.81 346.614 175.104 347.148 172.301C347.284 171.325 347.263 170.335 347.086 169.366C346.123 162.276 344.267 155.337 341.564 148.712C340.796 146.836 339.858 143.225 337.839 142.013L337.606 141.888L337.322 141.752C336.062 141.729 334.827 142.1 333.789 142.814C332.751 143.527 331.962 144.548 331.533 145.732C331.533 145.732 341.138 165.386 340.722 168.343C340.307 171.3 320.154 180.927 320.154 180.927L319.426 185.312Z" fill="url(#paint7_linear_192_43)"/>
<path d="M310.532 182.548C310.006 182.679 309.515 182.924 309.093 183.264C308.885 183.437 308.73 183.667 308.649 183.925C308.567 184.183 308.561 184.459 308.632 184.72C308.796 185.025 308.986 185.314 309.201 185.585C309.468 186.045 309.497 186.614 309.736 187.092C310.199 187.815 310.918 188.337 311.749 188.553C314.149 189.417 317.077 189.543 319.011 187.882C320.427 186.671 323.247 181.695 320.148 180.944C319.011 180.666 317.362 181.189 316.213 181.348C314.29 181.592 312.39 181.994 310.532 182.548V182.548Z" fill="#FFBBAB"/>
<path d="M308.172 123.896C308.172 123.896 294.723 121.576 291.942 117.8V131.976C291.942 131.976 295.121 128.997 308.172 128.798C308.172 128.775 310.754 126.654 308.172 123.896Z" fill="#F87102"/>
<path d="M291.38 132.283C292.824 132.283 293.995 128.933 293.995 124.8C293.995 120.667 292.824 117.316 291.38 117.316C289.935 117.316 288.764 120.667 288.764 124.8C288.764 128.933 289.935 132.283 291.38 132.283Z" fill="#F87102"/>
<path d="M291.379 131.328C292.638 131.328 293.659 128.405 293.659 124.8C293.659 121.194 292.638 118.271 291.379 118.271C290.12 118.271 289.099 121.194 289.099 124.8C289.099 128.405 290.12 131.328 291.379 131.328Z" fill="url(#paint8_linear_192_43)"/>
<path d="M305.454 128.621C305.454 128.621 305.852 135.877 303.748 136.821C301.644 137.765 300.768 136.571 300.967 136.173C301.166 135.775 303.213 130.549 302.286 129.087C301.359 127.626 305.454 128.621 305.454 128.621Z" fill="#F87102"/>
<path d="M296.656 135.36C296.656 134.092 296.531 132.767 297.032 131.595C297.191 131.192 297.461 130.841 297.811 130.583C298.143 130.38 298.512 130.242 298.897 130.179C300.593 129.815 302.341 129.748 304.06 129.98C304.224 129.973 304.385 130.022 304.517 130.119C304.648 130.216 304.742 130.356 304.782 130.515C305.247 131.806 305.219 133.224 304.703 134.495C304.183 135.757 303.509 136.949 302.695 138.044C302.348 138.634 301.891 139.151 301.348 139.568C300.21 140.307 297.515 140.529 296.469 139.528C296.28 139.321 296.154 139.065 296.106 138.789C296.058 138.513 296.089 138.229 296.196 137.97C296.455 137.122 296.61 136.245 296.656 135.36V135.36Z" fill="#FFBBAB"/>
<path d="M290.987 124.242C290.818 124.275 290.66 124.35 290.526 124.458C290.395 124.601 290.324 124.788 290.327 124.982C290.332 125.218 290.389 125.45 290.493 125.663C290.597 125.875 290.746 126.062 290.93 126.21C291.303 126.495 291.737 126.689 292.198 126.779C292.247 126.79 292.297 126.79 292.346 126.779C292.397 126.761 292.443 126.73 292.477 126.688C292.757 126.341 292.922 125.916 292.949 125.471C293.009 125.174 293.009 124.869 292.949 124.572C292.647 123.549 291.715 124.043 290.987 124.242Z" fill="#F87102"/>
<path d="M131.402 174.387C131.402 174.387 145.266 194.461 147.063 194.564C148.86 194.666 178.704 195.531 178.704 195.531L178.528 189.275C178.528 189.275 164.829 182.787 158.937 184.726C154.991 186.017 154.297 185.744 154.297 185.744C154.297 185.744 149.247 170.64 147.371 167.632C145.494 164.623 131.402 174.387 131.402 174.387Z" fill="#282328"/>
<path d="M145.277 163.958C145.277 163.958 146.056 174.939 143.179 178.857C140.302 182.775 114.7 193.227 114.7 193.227C114.7 193.227 111.919 203.941 109.212 206.307C106.506 208.672 95.718 218.817 95.718 218.817L90.998 214.223L105.891 189.423C105.891 189.423 106.79 186.108 108.274 184.959C109.758 183.81 128.069 163.833 128.069 163.833L145.277 163.958Z" fill="#473F47"/>
<path d="M135.445 120.734L139.909 121.701C141.45 122.036 143.139 122.463 144.037 123.754C144.885 124.959 144.788 126.568 144.606 128.03C144.373 129.986 144.066 131.937 143.685 133.87C143.179 136.441 142.548 138.988 142.275 141.593C141.632 148.024 143.327 154.433 145.004 160.671C145.573 162.679 142.946 164.129 141.024 164.919C137.355 166.419 133.359 166.94 129.428 166.432C129.071 166.411 128.723 166.304 128.416 166.119C128.004 165.742 127.74 165.23 127.671 164.675C126.875 161.325 126.255 157.919 125.22 154.626C124.728 152.97 124.08 151.363 123.287 149.827C122.508 148.365 122.229 146.671 121.581 145.124C121.058 143.867 120.409 142.667 119.949 141.382C119.444 140.12 119.293 138.744 119.511 137.402C119.818 135.94 120.381 134.518 120.819 133.091C121.294 131.535 121.663 129.949 121.922 128.343C122.043 127.245 122.315 126.17 122.73 125.147C123.725 123.026 126.005 121.775 128.285 121.229C130.566 120.683 133.153 120.233 135.445 120.734Z" fill="#FFBBAB"/>
<path d="M107.114 109.326C105.721 107.967 104.305 106.665 103.361 104.948C102.182 102.833 101.269 100.581 100.643 98.2429C100.373 97.4127 100.283 96.5344 100.381 95.6669C100.586 94.4783 101.405 93.4491 101.518 92.2549C101.543 92.1256 101.519 91.9918 101.45 91.8795C101.393 91.8226 101.324 91.7784 101.249 91.75C101.173 91.7215 101.093 91.7095 101.012 91.7146L99.6303 91.6066C99.6264 90.552 99.2498 89.5328 98.5669 88.7291C98.0722 88.1605 97.2817 87.6828 96.5709 87.9444C95.8601 88.2059 95.5359 89.1897 94.9616 89.7868C94.3872 90.3839 93.6025 90.583 93.1077 91.1801C92.5391 91.8852 92.5391 92.8861 92.5391 93.8301C92.6528 96.3436 93.9152 97.97 94.7569 100.233C95.6539 102.637 96.7121 104.978 97.9243 107.239C100.345 111.775 103.34 115.979 106.835 119.75C108.722 121.781 110.746 123.681 112.892 125.437C115.24 127.353 124.134 134.985 126.79 132.13C130.39 128.263 126.71 123.6 123.378 121.666C117.468 118.24 112.005 114.095 107.114 109.326Z" fill="#FFBBAB"/>
<path d="M127.177 120.7C126.164 123.122 125.217 125.571 124.333 128.047C124.055 128.837 123.765 129.753 124.208 130.481C124.533 130.967 125.028 131.314 125.596 131.453C127.87 132.187 130.463 131.226 132.272 129.628C134.08 128.03 135.286 125.874 136.48 123.782C137.073 122.584 137.882 121.506 138.868 120.603C139.367 120.158 139.974 119.854 140.628 119.72C141.282 119.586 141.96 119.628 142.593 119.841C143.816 120.358 144.515 122.047 143.731 123.128C143.588 122.121 142.218 121.712 141.308 122.161C140.398 122.61 139.881 123.577 139.46 124.504C138.908 125.721 138.42 126.966 137.998 128.234C137.652 129.16 137.46 130.136 137.43 131.123C137.469 133.523 139.175 135.553 140.938 137.18C141.669 137.754 142.291 138.455 142.775 139.25C143.401 140.472 143.264 141.928 143.196 143.298C142.9 148.985 144.003 154.632 145.437 160.131C145.709 161.16 145.96 162.355 145.328 163.213C144.813 163.789 144.11 164.164 143.344 164.271C139.79 165.084 136.053 164.777 132.488 165.528C130.27 166 128.132 166.875 125.869 167.086C125.566 167.147 125.251 167.092 124.987 166.932C124.867 166.806 124.773 166.657 124.712 166.494C124.65 166.331 124.622 166.157 124.629 165.983C124.06 159.676 123.89 153.216 121.672 147.285C120.631 144.504 119.136 141.848 118.686 138.914C118.564 138.279 118.564 137.627 118.686 136.992C118.875 136.37 119.149 135.777 119.5 135.229C121.306 131.981 122.378 128.376 122.639 124.669" fill="white"/>
<path opacity="0.1" d="M141.513 147.808C141.609 148.86 141.621 150.083 140.819 150.771C140.578 150.937 140.355 151.127 140.153 151.34C139.755 151.846 139.954 152.568 139.96 153.21C139.96 154.462 139.215 155.565 138.743 156.725C138.271 157.885 138.22 159.46 139.261 160.137C139.932 160.58 140.881 160.518 141.456 161.075C142.349 161.945 141.888 163.862 143.054 164.305C143.388 164.388 143.741 164.346 144.047 164.187C144.353 164.027 144.59 163.762 144.714 163.441C144.944 162.79 145.005 162.091 144.89 161.411C144.318 154.264 143.693 147.12 143.014 139.978C143.022 139.593 142.937 139.213 142.767 138.869C142.596 138.524 142.346 138.226 142.036 137.999C141.433 137.43 140.603 136.293 139.841 136.088C139.272 137.373 140.341 139.773 140.586 141.098C140.995 143.316 141.304 145.552 141.513 147.808Z" fill="#020202"/>
<path d="M116.952 110.037C116.724 110.674 116.383 111.322 116.508 111.982C116.664 112.438 116.914 112.857 117.242 113.21C117.862 114.094 118.313 115.085 118.572 116.133C118.794 116.924 118.988 117.788 119.607 118.328C120.369 119.005 121.518 118.948 122.525 118.806C123.298 118.698 124.06 118.561 124.799 118.391C125.072 118.307 125.36 118.288 125.641 118.334C125.922 118.419 126.171 118.585 126.358 118.812C127.626 120.171 127.836 122.184 128.632 123.878C128.722 124.17 128.897 124.428 129.133 124.621C129.37 124.813 129.659 124.931 129.963 124.959C131.692 125.307 133.489 124.986 134.99 124.06C135.383 123.86 135.697 123.531 135.877 123.128C135.992 122.652 135.946 122.152 135.746 121.706C135.341 120.478 134.843 119.282 134.256 118.129C133.466 116.577 132.505 115.047 132.329 113.313C132.169 111.777 132.653 110.236 132.613 108.695C132.522 105.476 129.94 102.582 126.807 101.871C124.072 101.234 121.456 102.195 119.283 103.833C118.516 104.402 117.879 104.771 117.629 105.749C117.265 107.154 117.452 108.65 116.952 110.037Z" fill="#FFBBAB"/>
<path d="M117.328 99.8807C117.463 99.1256 117.76 98.4087 118.199 97.7795C118.638 97.1502 119.208 96.6235 119.87 96.2355C123.913 93.6936 130.828 93.9609 134.308 97.4411C135.446 98.5784 136.23 100.154 137.538 101.155C139.244 102.462 141.519 102.605 143.651 102.701C143.181 103.397 142.588 104 141.9 104.481C142.335 105.24 143.03 105.816 143.856 106.102L142.412 107.04L144.118 108.456C143.436 108.858 142.706 109.172 141.945 109.389C142.184 111.009 142.542 112.609 143.015 114.177C142.317 113.643 141.488 113.309 140.615 113.21C140.223 114.243 140.067 115.351 140.16 116.452L138.073 115.394C138.04 116.41 137.718 117.397 137.146 118.237C137.885 117.151 134.604 115.61 133.967 115.536C133.194 115.451 132.665 115.775 132.056 115.405C131.272 114.916 130.743 113.614 129.873 113.028C130.345 112.346 130.976 111.783 131.397 111.066C131.632 110.724 131.764 110.322 131.779 109.907C131.793 109.491 131.688 109.081 131.476 108.723C130.982 108.064 129.691 108.155 129.514 108.951C129.577 106.818 127.973 105.01 126.29 103.708C126.033 103.454 125.713 103.274 125.363 103.187C125.013 103.1 124.645 103.109 124.3 103.213C123.344 103.384 122.397 103.596 121.456 103.85C120.757 104.043 119.534 104.675 118.795 104.419C117.51 103.935 117.186 101.029 117.328 99.8807Z" fill="#FC682D"/>
<path d="M185.676 186.91C186.18 186.727 186.727 186.701 187.246 186.836C187.696 187.043 188.087 187.36 188.383 187.757C191.351 191.142 194.204 194.623 196.941 198.198C197.424 198.747 197.784 199.392 197.999 200.091C198.352 201.604 197.328 203.06 196.367 204.277C195.798 205.01 194.661 205.772 194.092 205.044C193.728 204.59 193.967 203.907 193.825 203.338C193.654 202.645 192.961 202.241 192.329 201.905L178.977 194.894C177.078 193.899 176.441 190.708 178.408 189.417C179.25 188.849 180.683 188.849 181.627 188.479C182.986 187.984 184.288 187.308 185.676 186.91Z" fill="#FFBBAB"/>
<path d="M128.286 118.072C128.542 118.02 128.808 118.054 129.042 118.169C129.256 118.346 129.397 118.595 129.44 118.869C129.803 120.226 130.026 121.617 130.106 123.02C130.147 123.392 130.116 123.768 130.015 124.129C129.961 124.308 129.861 124.471 129.725 124.6C129.59 124.73 129.423 124.822 129.241 124.868C128.815 124.942 128.406 124.669 127.973 124.635C127.736 124.631 127.5 124.68 127.284 124.778C127.067 124.877 126.876 125.022 126.722 125.204C126.42 125.568 126.166 125.969 125.966 126.398C125.441 127.378 124.84 128.315 124.169 129.201C124.373 127.207 124.88 125.255 125.67 123.412C125.839 122.895 126.167 122.445 126.609 122.127C126.955 121.922 127.41 121.854 127.626 121.519C127.973 120.984 127.444 120.336 127.007 119.875C126.569 119.414 125.795 118.738 126.165 118.3C126.392 118.021 127.934 118.107 128.286 118.072Z" fill="#E0A194"/>
<path d="M156.935 105.215C157.946 103.832 158.862 102.382 159.676 100.876C161.809 96.7019 162.935 91.4303 161.888 86.807C161.73 86.292 161.662 85.7531 161.689 85.2148C161.706 84.9447 161.804 84.6859 161.97 84.4727C162.137 84.2595 162.364 84.1018 162.622 84.0206C162.849 84.0044 163.074 83.9644 163.293 83.9011C163.617 83.7419 163.708 83.3325 163.936 83.0481C164.127 82.8379 164.377 82.689 164.653 82.6202C164.93 82.5514 165.22 82.5658 165.488 82.6615C166.02 82.8618 166.501 83.1763 166.898 83.5827C167.539 84.1658 168.149 84.7827 168.724 85.4309C169.208 85.9017 169.562 86.4892 169.753 87.1369C169.975 88.2173 169.344 89.2694 168.735 90.1963C167.74 90.2873 167.484 93.1079 167.376 93.7789C167.126 95.2688 166.807 96.753 166.449 98.2202C165.716 101.162 164.756 104.042 163.577 106.836C161.246 112.359 158.103 117.504 154.251 122.099C152.301 124.419 144.993 133.586 141.854 131.277C137.595 128.155 140.336 122.9 143.225 120.364C148.405 115.902 153.011 110.813 156.935 105.215Z" fill="#FFBBAB"/>
<path d="M119.459 112.926C120.019 112.77 120.589 112.656 121.165 112.585C121.238 112.562 121.315 112.562 121.387 112.585C121.443 112.622 121.487 112.676 121.512 112.738C121.945 113.569 122.076 114.524 121.882 115.44C121.83 115.801 121.681 116.141 121.45 116.423C121.331 116.562 121.175 116.662 121 116.713C120.826 116.763 120.64 116.761 120.466 116.708C120.193 116.564 119.974 116.337 119.84 116.059C119.248 115.261 118.88 114.319 118.777 113.33C118.768 113.287 118.768 113.242 118.777 113.199C118.81 113.145 118.86 113.103 118.919 113.08C119.245 112.911 119.604 112.816 119.971 112.801" fill="white"/>
<path d="M116.173 115.713L115.895 115.644C116.003 115.565 116.145 115.587 116.173 115.713Z" fill="#F87102"/>
<path d="M166.614 98.5443C166.805 100.251 166.626 101.979 166.091 103.611C162.827 114.814 156.236 125.334 146.461 131.703C145.898 132.02 145.415 132.461 145.05 132.994C144.821 133.492 144.699 134.033 144.692 134.581C143.993 144.191 146.296 153.785 146.313 163.424C146.391 164.27 146.191 165.118 145.744 165.84C145.13 166.659 144.038 166.87 143.009 167.006C142.338 167.103 141.667 167.2 140.99 167.273C136.133 167.895 131.248 168.262 126.353 168.371C125.522 168.371 124.59 168.371 123.975 167.802C123.361 167.234 123.265 166.29 123.196 165.437C122.628 158.914 120.45 152.699 118.892 146.381C118.089 143.297 117.55 140.15 117.282 136.975C117.163 135.269 117.237 133.642 116.378 132.266C116.114 131.835 115.779 131.45 115.389 131.129C113.921 129.912 112.033 129.338 110.441 128.286C107.808 126.551 106.171 123.668 104.652 120.893C102.429 116.872 100.148 112.88 97.9817 108.826C96.378 105.835 97.7258 104.163 99.8526 102.57C100.615 102.002 101.479 101.433 102.343 100.791C103.879 103.947 105.437 107.131 107.638 109.889C109.77 112.545 112.596 114.791 115.895 115.644C115.846 115.659 115.803 115.689 115.772 115.73C115.741 115.771 115.724 115.82 115.724 115.872C115.724 116.105 115.952 116.264 116.156 116.395C118.602 117.911 121.049 119.452 123.498 121.018C123.967 121.357 124.508 121.583 125.079 121.678C125.727 121.723 127.74 120.614 127.859 121.752C127.859 121.82 127.859 121.894 127.859 121.968C127.755 122.356 127.677 122.751 127.626 123.151C127.665 123.399 127.773 123.632 127.938 123.822C128.103 124.013 128.318 124.152 128.559 124.225C129.05 124.345 129.564 124.333 130.049 124.191C130.583 124.054 131.095 123.84 131.567 123.554C132.329 123.065 132.921 122.349 133.637 121.791C134.774 120.876 136.065 121.018 137.459 120.859C138.879 120.71 140.273 120.373 141.604 119.858C145.414 118.294 148.667 115.502 151.232 112.323C154.991 107.654 157.515 102.138 160.552 96.9691C160.855 96.3575 161.297 95.8257 161.843 95.4166C162.32 95.1576 162.86 95.0403 163.401 95.0786C163.943 95.1169 164.461 95.3092 164.897 95.6327C165.368 95.9742 165.763 96.4089 166.058 96.9098C166.354 97.4107 166.543 97.9671 166.614 98.5443Z" fill="#F87102"/>
<path d="M182.525 189.474C182.747 190.379 183.509 191.027 184.231 191.635C185.812 192.989 187.365 194.479 188.161 196.412C188.559 197.373 188.758 198.425 189.298 199.312C189.838 200.199 190.868 200.973 191.465 201.945C192.363 203.418 192.341 205.448 193.626 206.608C195.138 207.967 197.766 207.217 198.886 205.522C200.006 203.828 199.938 201.598 199.455 199.625C198.414 195.553 195.775 192.09 192.983 188.945C191.277 187.04 189.003 184.965 186.227 185.204C184.362 185.369 182.014 187.461 182.525 189.474Z" fill="#F87102"/>
<path d="M116.344 132.164C116.058 131.799 115.738 131.462 115.389 131.158C113.921 129.941 112.033 129.366 110.441 128.314C107.808 126.58 106.171 123.697 104.652 120.922C102.429 116.901 100.148 112.909 97.9817 108.854C96.378 105.863 97.7258 104.191 99.8526 102.599C100.409 102.967 100.888 103.44 101.263 103.992C102.076 105.164 102.486 106.563 103.037 107.882C104.389 110.912 106.271 113.678 108.593 116.048C110.976 118.613 113.262 121.291 115.633 123.89C115.773 124.025 115.888 124.183 115.974 124.356C116.06 124.645 116.071 124.95 116.008 125.243C115.866 126.466 115.866 127.7 116.008 128.923C116.082 129.673 116.879 131.63 116.344 132.164Z" fill="url(#paint9_linear_192_43)"/>
<path d="M166.614 98.5444C166.804 100.251 166.626 101.979 166.091 103.611C162.826 114.814 156.236 125.334 146.46 131.703C145.897 132.02 145.415 132.461 145.05 132.994C144.821 133.492 144.699 134.033 144.692 134.581C143.992 144.191 146.295 153.785 146.312 163.424C146.391 164.27 146.191 165.118 145.744 165.841C145.13 166.659 144.038 166.87 143.008 167.006C142.337 167.103 141.666 167.2 140.99 167.274H140.853C140.27 167.344 139.679 167.249 139.147 167.001C138.633 166.643 138.251 166.125 138.061 165.528C136.651 162.201 136.48 158.488 135.627 154.979C134.774 151.47 132.915 147.831 129.554 146.506C128.775 146.294 128.035 145.962 127.359 145.522C126.745 145.005 126.426 144.004 126.966 143.407C127.232 143.162 127.558 142.992 127.91 142.912C129.878 142.292 131.891 141.854 133.79 140.995C135.69 140.137 137.43 138.778 138.215 136.867C138.948 135.115 138.783 133.085 139.636 131.385C140.609 129.4 142.696 128.263 144.589 127.103C151.396 122.908 157.024 117.051 160.944 110.083C162.701 106.961 163.509 101.752 165.892 99.2155C166.105 98.9636 166.347 98.7383 166.614 98.5444V98.5444Z" fill="url(#paint10_linear_192_43)"/>
<path d="M84.5441 217.669C81.4903 218.078 78.3854 217.885 75.3089 218.067C74.7785 218.047 74.2552 218.194 73.8133 218.488C73.1025 219.056 73.2446 220.262 73.8133 220.967C74.472 221.616 75.2898 222.081 76.1847 222.315L80.734 223.93C83.1963 224.806 85.7326 225.693 88.3428 225.636C89.7758 225.602 91.4079 225.113 91.9595 223.793C92.1415 223.361 92.187 222.878 92.3405 222.429C92.8011 221.092 94.1773 220.262 94.7573 218.971C95.5933 217.134 94.1887 214.149 92.005 214.735C90.8677 215.036 89.7644 216.19 88.6271 216.645C87.3132 217.153 85.9419 217.496 84.5441 217.669Z" fill="#FFBBAB"/>
<path d="M78.3172 217.845C79.0508 217.879 79.864 217.948 80.353 218.493C81.0525 219.261 80.7283 220.563 81.3311 221.411C81.6213 221.763 81.9919 222.04 82.4116 222.218C85.2619 223.619 88.5189 223.956 91.5956 223.168C92.096 223.037 92.841 223.031 92.8978 223.543C92.9039 223.687 92.8684 223.829 92.7955 223.953C92.4334 224.615 91.9163 225.18 91.2884 225.598C90.6606 226.017 89.9406 226.278 89.1901 226.358C87.6882 226.507 86.1716 226.36 84.7261 225.926C80.8227 224.877 76.9897 223.582 73.2504 222.048C72.5399 221.845 71.8986 221.452 71.3965 220.91C71.195 220.671 71.0609 220.382 71.0079 220.074C70.9549 219.765 70.9849 219.448 71.0949 219.155C71.2049 218.862 71.3909 218.604 71.6338 218.407C71.8767 218.21 72.1677 218.08 72.477 218.033C74.41 217.746 76.3697 217.683 78.3172 217.845Z" fill="#F87102"/>
</g>
<defs>
<linearGradient id="paint0_linear_192_43" x1="263.691" y1="-80.3128" x2="137.305" y2="667.985" gradientUnits="userSpaceOnUse">
<stop offset="0.01"/>
<stop offset="0.08" stop-opacity="0.69"/>
<stop offset="0.21" stop-opacity="0.32"/>
<stop offset="1" stop-opacity="0"/>
</linearGradient>
<linearGradient id="paint1_linear_192_43" x1="103.19" y1="159.75" x2="143.998" y2="329.173" gradientUnits="userSpaceOnUse">
<stop offset="0.01"/>
<stop offset="0.08" stop-opacity="0.69"/>
<stop offset="0.21" stop-opacity="0.32"/>
<stop offset="1" stop-opacity="0"/>
</linearGradient>
<linearGradient id="paint2_linear_192_43" x1="348.991" y1="208.718" x2="240.723" y2="273.091" gradientUnits="userSpaceOnUse">
<stop offset="0.01"/>
<stop offset="0.08" stop-opacity="0.69"/>
<stop offset="0.21" stop-opacity="0.32"/>
<stop offset="1" stop-opacity="0"/>
</linearGradient>
<linearGradient id="paint3_linear_192_43" x1="306.853" y1="203.1" x2="364.698" y2="252.682" gradientUnits="userSpaceOnUse">
<stop offset="0.01"/>
<stop offset="0.08" stop-opacity="0.69"/>
<stop offset="0.21" stop-opacity="0.32"/>
<stop offset="1" stop-opacity="0"/>
</linearGradient>
<linearGradient id="paint4_linear_192_43" x1="269.269" y1="160.86" x2="352.071" y2="121.44" gradientUnits="userSpaceOnUse">
<stop offset="0.01"/>
<stop offset="0.08" stop-opacity="0.69"/>
<stop offset="0.21" stop-opacity="0.32"/>
<stop offset="1" stop-opacity="0"/>
</linearGradient>
<linearGradient id="paint5_linear_192_43" x1="322.139" y1="171.118" x2="343.56" y2="216.81" gradientUnits="userSpaceOnUse">
<stop offset="0.01"/>
<stop offset="0.08" stop-opacity="0.69"/>
<stop offset="0.21" stop-opacity="0.32"/>
<stop offset="1" stop-opacity="0"/>
</linearGradient>
<linearGradient id="paint6_linear_192_43" x1="327.359" y1="227.74" x2="287.467" y2="236.708" gradientUnits="userSpaceOnUse">
<stop offset="0.01"/>
<stop offset="0.08" stop-opacity="0.69"/>
<stop offset="0.21" stop-opacity="0.32"/>
<stop offset="1" stop-opacity="0"/>
</linearGradient>
<linearGradient id="paint7_linear_192_43" x1="299.028" y1="148.036" x2="377.754" y2="190.037" gradientUnits="userSpaceOnUse">
<stop offset="0.01"/>
<stop offset="0.08" stop-opacity="0.69"/>
<stop offset="0.21" stop-opacity="0.32"/>
<stop offset="1" stop-opacity="0"/>
</linearGradient>
<linearGradient id="paint8_linear_192_43" x1="281.535" y1="124.1" x2="322.525" y2="127.018" gradientUnits="userSpaceOnUse">
<stop offset="0.01"/>
<stop offset="0.08" stop-opacity="0.69"/>
<stop offset="0.21" stop-opacity="0.32"/>
<stop offset="1" stop-opacity="0"/>
</linearGradient>
<linearGradient id="paint9_linear_192_43" x1="119.583" y1="93.046" x2="89.2667" y2="154.529" gradientUnits="userSpaceOnUse">
<stop offset="0.01"/>
<stop offset="0.08" stop-opacity="0.69"/>
<stop offset="0.21" stop-opacity="0.32"/>
<stop offset="1" stop-opacity="0"/>
</linearGradient>
<linearGradient id="paint10_linear_192_43" x1="185.544" y1="155.212" x2="93.6332" y2="92.0774" gradientUnits="userSpaceOnUse">
<stop offset="0.01"/>
<stop offset="0.08" stop-opacity="0.69"/>
<stop offset="0.21" stop-opacity="0.32"/>
<stop offset="1" stop-opacity="0"/>
</linearGradient>
<clipPath id="clip0_192_43">
<rect width="406" height="306" fill="white"/>
</clipPath>
</defs>
</svg>
