<svg width="530" height="446" viewBox="0 0 530 446" fill="none" xmlns="http://www.w3.org/2000/svg">
<mask id="mask0_103_329" style="mask-type:alpha" maskUnits="userSpaceOnUse" x="0" y="0" width="530" height="446">
<path d="M123.42 31.5498C142.201 18.4033 162.543 7.16824 184.545 2.46747C216.758 -4.35938 250.796 3.44273 279.728 20.1588C314.518 40.2102 341.996 71.8477 373.281 97.741C409.642 127.799 451.547 150.23 484.414 184.617C517.28 219.005 540.327 270.841 525.314 317.341C512.038 358.497 473.53 383.532 436.115 400.482C351.595 438.801 258.209 453.338 166.028 442.526C85.3309 432.89 -0.891088 376.53 0.0069556 278.682C0.914761 180.131 46.8712 85.1113 123.42 31.5498Z" fill="white"/>
</mask>
<g mask="url(#mask0_103_329)">
<path opacity="0.42" d="M123.42 31.5498C142.201 18.4033 162.543 7.16824 184.545 2.46747C216.758 -4.35938 250.796 3.44273 279.728 20.1588C314.518 40.2102 341.996 71.8477 373.281 97.741C409.642 127.799 451.547 150.23 484.414 184.617C517.28 219.005 540.327 270.841 525.314 317.341C512.038 358.497 473.53 383.532 436.115 400.482C351.595 438.801 258.209 453.338 166.028 442.526C85.3309 432.89 -0.891088 376.53 0.0069556 278.682C0.914761 180.131 46.8712 85.1113 123.42 31.5498Z" fill="#F87102" fill-opacity="0.1"/>
<path d="M55.9495 202.475C70.8915 210.823 84.9992 220.581 98.0795 231.616C108.485 240.393 118.325 250.019 130.116 256.826C141.908 263.633 156.296 267.359 169.259 263.185C191.281 256.085 204.625 228.212 227.769 228.319C234.084 228.319 240.859 230.543 246.452 227.607C249.878 225.803 252.104 222.409 254.183 219.152L277.61 182.482L299.153 221.2C300.13 222.936 301.184 224.759 302.951 225.666C305.401 226.925 308.349 225.998 311.111 225.9C323.752 225.462 331.971 242.304 344.612 241.778C347.97 241.641 351.299 240.227 354.598 240.871C359.664 241.846 362.583 247.181 367.024 249.794C373.857 253.842 382.808 250.662 389.29 246.03C395.771 241.397 401.482 235.302 409.066 232.815C416.651 230.328 427.017 233.732 428.023 241.592C436.808 240.481 438.165 225.803 446.872 224.194C453.119 223.053 457.844 229.421 461.299 234.736C475.361 256.291 495.22 273.449 518.598 284.241C524.68 287.04 531.952 290.658 532.459 297.329C532.967 304 526.183 308.778 520.258 312.007C429.292 361.579 334.47 412.293 231.029 418.242C179.294 421.168 125.86 412.966 76.7314 429.311C54.1925 436.811 31.9268 449.519 8.40198 446.534C7.32219 446.463 6.27639 446.128 5.35644 445.559C3.66773 444.34 3.40417 441.96 3.40417 439.883C1.59507 391.451 -0.207525 343.013 -2.00361 294.569C-2.77476 277.014 -3.53615 266.647 7.90415 252.954C22.7609 235.165 39.199 218.498 55.9495 202.475Z" fill="#FF6B00"/>
<path opacity="0.58" d="M520.238 312.046C429.282 361.618 334.46 412.332 231.019 418.281C179.284 421.207 125.85 413.005 76.7215 429.36C54.1923 436.86 31.9169 449.548 8.39206 446.573C7.31525 446.503 6.27251 446.168 5.35628 445.598C3.65781 444.379 3.40401 441.999 3.35521 439.922C1.55912 391.471 -0.240225 343.033 -2.04282 294.608C-2.15996 291.682 -2.26733 288.951 -2.3259 286.377C-2.6285 273.454 -1.60356 264.326 7.93328 252.915C22.7608 235.166 39.1989 218.498 55.9493 202.475C70.8928 210.82 85.0008 220.579 98.0793 231.616C108.475 240.393 118.324 250.019 130.116 256.826C141.908 263.633 156.296 267.369 169.259 263.185C191.281 256.085 204.624 228.212 227.769 228.319C234.084 228.319 240.859 230.543 246.452 227.607C249.878 225.803 252.104 222.399 254.183 219.152C261.992 206.922 269.801 194.699 277.61 182.482L283.828 193.658L299.144 221.2C300.12 222.936 301.174 224.759 302.941 225.666C305.401 226.925 308.349 225.998 311.091 225.9C323.732 225.462 331.961 242.304 344.602 241.778C347.95 241.641 351.279 240.217 354.578 240.861C356.572 241.336 358.409 242.321 359.908 243.719C362.26 245.669 364.359 248.234 367.014 249.804C373.847 253.842 382.798 250.653 389.28 246.03C395.761 241.407 401.472 235.302 409.056 232.815C416.641 230.328 426.998 233.732 428.013 241.592C436.798 240.471 438.145 225.803 446.862 224.194C453.1 223.053 457.834 229.421 461.289 234.736L461.709 235.361C475.739 256.634 495.44 273.567 518.588 284.251C524.67 287.03 531.952 290.658 532.45 297.329C532.947 304 526.163 308.808 520.238 312.046Z" fill="url(#paint0_linear_103_329)"/>
<path opacity="0.58" d="M402.545 274.43C379.704 275.356 359.254 289.585 336.529 292.092C317.485 294.189 297.855 287.918 279.25 292.482C264.178 296.188 251.479 306.633 236.466 310.583C226.705 313.138 216.475 312.836 206.401 312.397C189.338 311.655 172.295 310.586 155.271 309.188C171.787 322.052 193.086 327.006 213.839 329.591C234.592 332.175 255.813 332.78 275.97 338.456C292.564 343.127 308.182 351.134 324.952 355.035C341.918 358.995 359.576 358.634 376.98 357.727C408.549 356.079 440.029 352.714 471.285 347.974C488.855 345.283 510.838 340.923 520.755 324.295C528.809 310.788 523.684 291.038 509.549 283.695C497.299 277.316 480.763 278.497 467.576 274.673C456.125 271.348 446.862 266.023 434.816 269.28C424.315 272.329 413.475 274.059 402.545 274.43Z" fill="url(#paint1_linear_103_329)"/>
<path d="M283.828 193.658C283.767 194.278 283.639 194.889 283.447 195.482C282.149 199.237 279.631 198.925 277.903 201.968C272.397 211.72 275.502 218.098 272.524 228.504C270.25 236.453 261.836 240.939 253.87 243.133C245.905 245.328 237.276 246.42 230.59 251.277C223.903 256.134 220.409 266.803 226.246 272.664C217.207 273.64 211.555 283.48 202.819 286.074C199.775 286.823 196.635 287.106 193.506 286.913L136.598 286.328C133.903 286.328 131.092 286.24 128.642 285.07C125.909 283.724 124.015 281.169 122.151 278.74C114.251 268.586 104.654 259.873 93.7843 252.984C91.7247 251.686 89.5381 250.419 87.1173 250.253C84.6965 250.087 82.5002 250.926 80.2844 251.764L50.0827 263.37C44.4407 265.525 38.7596 267.72 33.7032 271.016C29.1544 273.942 25.2011 277.755 20.6035 280.632C13.7124 284.867 5.68076 286.873 -2.39426 286.377C-2.69686 273.454 -1.67192 264.326 7.86492 252.915C22.7607 235.165 39.1988 218.498 55.9493 202.475C70.8928 210.82 85.0007 220.579 98.0793 231.616C108.475 240.393 118.324 250.019 130.116 256.826C141.908 263.633 156.296 267.369 169.259 263.185C191.281 256.085 204.624 228.212 227.769 228.319C234.084 228.319 240.859 230.543 246.452 227.607C249.878 225.803 252.104 222.399 254.183 219.152C261.992 206.922 269.801 194.699 277.61 182.482L283.828 193.658Z" fill="url(#paint2_linear_103_329)"/>
<path d="M344.729 303.717C334.411 300.518 323.703 297.573 312.956 298.636C298.362 300.079 285.575 308.691 271.714 313.469C234.172 326.411 193.262 310.485 153.602 310.973C137.417 311.168 121.389 314.123 105.332 315.956C73.9392 319.526 42.2343 318.814 10.6466 319.799C8.10867 319.877 5.39501 320.023 3.38418 321.564C0.455772 323.797 0.114126 328.011 0.026274 331.697C-0.764395 367.187 -1.32079 403.993 12.9113 436.528C14.9611 441.209 17.5577 446.037 22.0381 448.514C25.9426 450.67 30.6379 450.679 35.0988 450.63L258.429 448.251C278.927 448.027 299.495 447.792 319.564 443.794C335.182 440.673 350.215 435.319 365.032 429.565C384.809 421.889 404.79 413.151 419.969 398.356C441.337 377.515 436.271 354.548 416.699 334.798C399.295 317.234 367.648 310.787 344.729 303.717Z" fill="#FF6B00"/>
<path opacity="0.58" d="M344.729 303.717C334.411 300.518 323.703 297.573 312.956 298.636C298.362 300.079 285.575 308.691 271.714 313.469C234.172 326.411 193.262 310.485 153.602 310.973C137.417 311.168 121.389 314.123 105.332 315.956C73.9392 319.526 42.2343 318.814 10.6466 319.799C8.10867 319.877 5.39501 320.023 3.38418 321.564C0.455772 323.797 0.114126 328.011 0.026274 331.697C-0.764395 367.187 -1.32079 403.993 12.9113 436.528C14.9611 441.209 17.5577 446.037 22.0381 448.514C25.9426 450.67 30.6379 450.679 35.0988 450.63L258.429 448.251C278.927 448.027 299.495 447.792 319.564 443.794C335.182 440.673 350.215 435.319 365.032 429.565C384.809 421.889 404.79 413.151 419.969 398.356C441.337 377.515 436.271 354.548 416.699 334.798C399.295 317.234 367.648 310.787 344.729 303.717Z" fill="url(#paint3_linear_103_329)"/>
<path opacity="0.58" d="M73.3633 379.787C83.5054 371.527 93.8622 363.13 106.142 358.507C119.974 353.28 135.153 353.241 149.941 353.28L237.666 353.465C250.21 353.465 263.368 353.367 274.398 347.389C182.695 339.982 90.6624 337.436 -1.31095 339.762C-2.18947 356.976 -8.1439 408.401 11.7302 416.418C31.4579 424.366 60.5369 390.222 73.3633 379.787Z" fill="url(#paint4_linear_103_329)"/>
<path d="M385.99 294.228C369.503 303.005 355.291 316.512 340.239 327.162C332.332 332.741 251.411 385.678 253.246 390.71L254.671 394.611C251.425 403.55 250.282 413.114 251.33 422.565C252.377 432.015 255.588 441.098 260.713 449.109L506.699 453.986C520.004 454.249 533.836 454.415 545.93 448.856C551.035 446.496 555.965 442.809 557.731 437.474C558.786 434.295 558.62 430.862 558.444 427.527C556.648 394.368 561.646 351.456 552.587 319.614C548.107 303.834 541.274 307.989 525.909 307.004C510.545 306.019 496.313 302.781 483.321 295.954C482.032 295.281 480.763 294.579 479.504 293.828C453.714 278.575 422.693 279.296 395.049 290.092C391.958 291.308 388.94 292.702 386.01 294.267" fill="#FF6B00"/>
<path opacity="0.58" d="M557.692 437.425C555.935 442.76 551.006 446.456 545.891 448.807C533.796 454.375 519.964 454.219 506.66 453.946L260.723 449.07C252.617 436.407 249.388 421.235 251.635 406.373C252.236 402.348 253.253 398.397 254.671 394.582C254.202 393.275 253.694 391.988 253.245 390.681C251.41 385.658 332.312 332.721 340.239 327.123C355.291 316.483 369.523 302.946 386 294.188C388.929 292.633 391.944 291.243 395.029 290.024C400.854 287.739 406.849 285.917 412.961 284.572C435.568 279.637 459.161 281.734 479.484 293.759C480.743 294.51 482.012 295.212 483.301 295.895C496.293 302.722 510.496 305.95 525.89 306.935C541.283 307.92 548.077 303.756 552.567 319.555C561.597 351.348 556.609 394.319 558.424 427.458C558.58 430.823 558.756 434.256 557.692 437.425Z" fill="url(#paint5_linear_103_329)"/>
<path opacity="0.58" d="M412.961 284.601C412.931 285.294 412.859 285.984 412.746 286.669C411.535 294.627 410.1 303.043 404.732 309.032C400.378 313.908 393.994 316.424 388.938 320.481C376.463 330.458 372.988 348.091 362.387 360.038C355.173 368.181 344.641 373.75 340.239 383.698C331.619 403.154 347.589 442.262 314.927 447.88C292.779 451.683 266.208 422.406 251.635 406.392C252.236 402.367 253.253 398.416 254.671 394.601C254.202 393.294 253.694 392.007 253.245 390.7C251.41 385.678 332.312 332.74 340.239 327.142C355.291 316.502 369.523 302.965 386 294.208C388.929 292.652 391.944 291.262 395.029 290.043C400.854 287.762 406.85 285.942 412.961 284.601V284.601Z" fill="url(#paint6_linear_103_329)"/>
<path d="M153.212 325.143C155.057 334.516 157.76 343.79 158.161 353.338C158.116 353.776 158.171 354.218 158.322 354.632C158.472 355.046 158.714 355.42 159.029 355.728C159.488 355.969 160.006 356.077 160.523 356.04C161.685 356.04 162.836 356.04 163.988 356.04C165.065 356.166 166.153 355.921 167.073 355.347C168.166 354.489 168.312 352.909 168.332 351.514C168.635 332.984 163.891 314.181 167.815 296.051C167.883 295.729 157.624 296.363 156.706 296.539C153.016 297.221 152.733 298.675 152.109 302.293C150.82 309.9 151.747 317.673 153.212 325.143Z" fill="url(#paint7_linear_103_329)"/>
<path d="M199.909 291.448C200.072 292.569 199.996 293.713 199.684 294.803C198.483 301.064 199.411 307.481 200.348 313.83L203.911 337.802C205.863 339.197 208.791 338.027 210.099 336.008C211.407 333.989 211.544 331.473 211.642 329.074L212.95 295.144C213.178 292.462 213.036 289.761 212.53 287.118C211.7 283.695 209.67 280.691 207.464 277.941C207.193 277.517 206.792 277.192 206.322 277.014C205.866 276.933 205.397 276.991 204.975 277.18C202.163 278.155 195.448 280.935 194.296 284.007C193.027 287.527 199.059 287.937 199.909 291.448Z" fill="url(#paint8_linear_103_329)"/>
<path d="M146.993 294.452C147.014 295.253 147.349 296.014 147.926 296.57C148.503 297.127 149.276 297.434 150.078 297.426C156.898 298.762 163.913 298.762 170.733 297.426C171.045 297.427 171.354 297.362 171.638 297.234C171.923 297.107 172.178 296.92 172.384 296.686C172.591 296.453 172.746 296.178 172.838 295.88C172.93 295.582 172.958 295.268 172.919 294.959L174.344 280.973C176.669 286.024 179.368 290.894 182.417 295.544L204.868 279.832C205.767 279.326 206.489 278.557 206.938 277.628C207.406 276.253 206.615 274.8 205.844 273.571C200.15 264.469 194.293 255.464 188.274 246.556C187.298 245.162 186.322 243.689 184.711 243.104C182.934 242.441 180.963 243.104 179.176 243.689L158.297 251.004C149.726 253.998 147.452 258.201 146.261 266.9C145.02 276.064 145.267 285.367 146.993 294.452V294.452Z" fill="#FF6B00"/>
<path opacity="0.58" d="M146.993 294.452C147.014 295.253 147.349 296.014 147.926 296.57C148.503 297.127 149.276 297.434 150.078 297.426C156.898 298.762 163.913 298.762 170.733 297.426C171.045 297.427 171.354 297.362 171.638 297.234C171.923 297.107 172.178 296.92 172.384 296.686C172.591 296.453 172.746 296.178 172.838 295.88C172.93 295.582 172.958 295.268 172.919 294.959L174.344 280.973C176.669 286.024 179.368 290.894 182.417 295.544L204.868 279.832C205.767 279.326 206.489 278.557 206.938 277.628C207.406 276.253 206.615 274.8 205.844 273.571C200.15 264.469 194.293 255.464 188.274 246.556C187.298 245.162 186.322 243.689 184.711 243.104C182.934 242.441 180.963 243.104 179.176 243.689L158.297 251.004C149.726 253.998 147.452 258.201 146.261 266.9C145.02 276.064 145.267 285.367 146.993 294.452V294.452Z" fill="url(#paint9_linear_103_329)"/>
<path d="M184.087 170.018C184.472 170.486 184.671 171.08 184.643 171.685C184.505 172.068 184.307 172.427 184.057 172.748C183.384 173.938 183.833 175.489 183.345 176.767C182.857 178.044 181.393 178.873 180.251 179.692C179.396 180.436 178.467 181.09 177.478 181.643C176.98 181.908 176.415 182.023 175.852 181.975C175.289 181.926 174.752 181.716 174.306 181.37C173.749 180.705 173.427 179.876 173.388 179.01C172.847 175.37 172.563 171.698 172.539 168.018C172.492 167.418 172.593 166.816 172.832 166.263C173.112 165.819 173.498 165.45 173.954 165.19C175.907 163.961 179.118 163.181 181.334 164.215C183.316 165.141 183.12 168.252 184.087 170.018Z" fill="url(#paint10_linear_103_329)"/>
<path d="M173.017 155.438C175.067 154.726 177.585 154.921 179.088 156.481C179.898 157.32 180.367 158.5 181.353 159.114C182.321 159.601 183.423 159.752 184.486 159.543C185.539 159.324 186.626 159.324 187.678 159.543C188.2 159.675 188.656 159.992 188.959 160.436C189.263 160.88 189.394 161.419 189.328 161.952C189.113 162.811 188.254 163.308 187.463 163.718C183.806 165.623 180.094 167.43 176.326 169.14C175.178 169.716 173.97 170.164 172.724 170.476C172.171 170.652 171.578 170.652 171.025 170.476C170.642 170.289 170.308 170.015 170.049 169.676C169.011 168.509 168.216 167.146 167.713 165.667C167.211 164.188 167.009 162.623 167.121 161.065C167.336 158.256 170.528 156.306 173.017 155.438Z" fill="#FF6B00"/>
<path opacity="0.58" d="M173.017 155.438C175.067 154.726 177.585 154.921 179.088 156.481C179.898 157.32 180.367 158.5 181.353 159.114C182.321 159.601 183.423 159.752 184.486 159.543C185.539 159.324 186.626 159.324 187.678 159.543C188.2 159.675 188.656 159.992 188.959 160.436C189.263 160.88 189.394 161.419 189.328 161.952C189.113 162.811 188.254 163.308 187.463 163.718C183.806 165.623 180.094 167.43 176.326 169.14C175.178 169.716 173.97 170.164 172.724 170.476C172.171 170.652 171.578 170.652 171.025 170.476C170.642 170.289 170.308 170.015 170.049 169.676C169.011 168.509 168.216 167.146 167.713 165.667C167.211 164.188 167.009 162.623 167.121 161.065C167.336 158.256 170.528 156.306 173.017 155.438Z" fill="url(#paint11_linear_103_329)"/>
<path d="M125.928 394.289C139.125 385.824 148.897 372.98 161.293 363.383C174.454 353.234 190.207 346.988 206.752 345.36C209.68 345.077 212.755 344.96 215.537 346.004C218.758 347.213 221.199 349.856 223.512 352.411L261.513 394.279C264.301 397.595 267.454 400.585 270.913 403.193C275.101 406.119 279.962 407.865 284.482 410.244C299.914 418.349 310.466 433.173 320.423 447.461C292.783 449.637 265.558 455.495 239.472 464.879C228.315 468.897 217.353 473.559 205.864 476.514C188.45 480.98 170.274 481.39 152.293 481.39C131.648 481.331 110.974 480.688 90.4261 478.669C79.1029 477.547 67.6235 475.851 56.9544 471.774C49.8188 469.043 30.8916 460.578 33.5272 451.03C35.128 445.178 48.2668 434.382 52.9522 429.35C61.0346 420.67 72.1138 415.491 83.0855 411.434C97.4737 406.061 112.819 402.696 125.928 394.289Z" fill="#FF6B00"/>
<path opacity="0.58" d="M320.413 447.461C292.772 449.634 265.547 455.492 239.462 464.879C228.305 468.887 217.343 473.559 205.854 476.514C188.439 480.981 170.264 481.39 152.283 481.39C131.638 481.39 110.964 480.688 90.4062 478.669L88.454 478.455C77.7751 477.343 66.979 475.617 56.9541 471.774C49.8283 469.034 30.9011 460.578 33.5269 451.02C35.1277 445.169 48.2763 434.382 52.9617 429.35C61.0343 420.67 72.1135 415.492 83.0852 411.434C97.5125 406.1 112.867 402.735 125.977 394.338C139.086 385.941 148.945 373.009 161.352 363.422C174.509 353.274 190.259 347.028 206.801 345.399C209.729 345.126 212.804 345 215.586 346.033C216.921 346.558 218.166 347.289 219.276 348.198C220.811 349.5 222.244 350.919 223.561 352.441L261.552 394.319C264.346 397.631 267.502 400.621 270.962 403.233C275.149 406.158 280.011 407.904 284.53 410.284C299.895 418.339 310.447 433.173 320.413 447.461Z" fill="url(#paint12_linear_103_329)"/>
<path opacity="0.58" d="M219.217 348.208C214.412 354.102 209.008 359.481 203.092 364.261C193.077 372.327 180.933 379.622 177.117 391.9C174.452 400.463 176.141 410.801 170.118 417.472C163.285 425.03 149.346 424.298 144.738 433.378C143.645 435.553 143.284 438.011 142.542 440.322C138.442 453.059 124.24 458.93 112.174 464.704C103.905 468.659 95.9605 473.26 88.4154 478.465C77.7365 477.353 66.9404 475.627 56.9155 471.784C49.7897 469.043 30.8625 460.588 33.4883 451.03C35.0891 445.179 48.2377 434.392 52.9231 429.36C60.9958 420.68 72.0749 415.501 83.0466 411.444C97.4739 406.11 112.829 402.745 125.938 394.348C139.047 385.951 148.906 373.019 161.313 363.432C174.471 353.284 190.22 347.038 206.762 345.409C209.69 345.136 212.765 345.009 215.547 346.043C216.876 346.57 218.114 347.3 219.217 348.208V348.208Z" fill="url(#paint13_linear_103_329)"/>
<path d="M194.208 189.318C196.434 193.571 197.01 198.944 194.648 203.118C193.825 204.703 192.455 205.937 190.792 206.59C189.957 206.892 189.05 206.932 188.192 206.706C187.334 206.479 186.566 205.997 185.989 205.323C184.032 214.146 183.427 223.215 184.193 232.22C184.467 235.429 184.877 238.852 183.364 241.69C182.161 243.665 180.421 245.258 178.346 246.284C168.253 251.94 155.729 250.897 144.562 247.883C144.143 247.852 143.735 247.734 143.364 247.537C142.993 247.339 142.668 247.066 142.409 246.736C142.149 246.405 141.962 246.024 141.859 245.617C141.756 245.21 141.739 244.786 141.809 244.372C141.585 239.203 141.585 234.025 141.575 228.846V208.209C141.575 201.743 141.673 194.897 145.06 189.396C146.405 187.132 148.355 185.288 150.692 184.072C152.891 183.12 155.221 182.508 157.603 182.258C169.405 180.463 187.912 173.636 194.208 189.318Z" fill="#FF6B00"/>
<path opacity="0.58" d="M194.208 189.318C196.434 193.571 197.01 198.944 194.648 203.118C193.825 204.703 192.455 205.937 190.792 206.59C189.957 206.892 189.05 206.932 188.192 206.706C187.334 206.479 186.566 205.997 185.989 205.323C184.032 214.146 183.427 223.215 184.193 232.22C184.467 235.429 184.877 238.852 183.364 241.69C182.161 243.665 180.421 245.258 178.346 246.284C168.253 251.94 155.729 250.897 144.562 247.883C144.143 247.852 143.735 247.734 143.364 247.537C142.993 247.339 142.668 247.066 142.409 246.736C142.149 246.405 141.962 246.024 141.859 245.617C141.756 245.21 141.739 244.786 141.809 244.372C141.585 239.203 141.585 234.025 141.575 228.846V208.209C141.575 201.743 141.673 194.897 145.06 189.396C146.405 187.132 148.355 185.288 150.692 184.072C152.891 183.12 155.221 182.508 157.603 182.258C169.405 180.463 187.912 173.636 194.208 189.318Z" fill="url(#paint14_linear_103_329)"/>
<path opacity="0.58" d="M176.834 188.587C176.692 190.499 176.692 192.419 176.834 194.331C176.834 199.559 174.881 204.552 173.29 209.555C171.699 214.558 170.723 220.078 172.705 224.925C173.011 225.54 173.222 226.198 173.329 226.876C173.326 227.432 173.274 227.987 173.173 228.534C173.109 230.093 173.27 231.653 173.652 233.166C174.559 238.248 174.354 243.446 174.159 248.595C173.525 248.673 173.251 247.825 173.183 247.191L172.451 235.995C169.776 238.462 170.86 242.821 170.118 246.371C170.075 246.8 169.935 247.214 169.708 247.58C169.482 247.947 169.174 248.257 168.81 248.488C168.293 248.662 167.73 248.644 167.225 248.439C166.719 248.233 166.305 247.852 166.057 247.366C165.593 246.377 165.382 245.288 165.442 244.197L164.964 224.984C164.636 218.479 164.799 211.959 165.452 205.479C165.93 201.665 166.74 197.911 167.404 194.117C167.688 191.499 168.322 188.93 169.288 186.481C170.268 184.412 171.764 182.63 173.632 181.306C175.501 179.982 177.679 179.161 179.957 178.922C180.807 178.844 183.452 178.756 183.618 179.966C183.725 180.756 181.217 181.653 180.641 182.102C178.581 183.691 177.217 186.015 176.834 188.587V188.587Z" fill="url(#paint15_linear_103_329)"/>
<path d="M176.833 223.374C174.441 225.101 171.464 226.427 168.604 225.705C168.292 226.271 168.77 227.002 169.356 227.275C169.941 227.549 170.634 227.578 171.24 227.802C171.877 228.096 172.428 228.549 172.839 229.118C173.249 229.687 173.505 230.353 173.582 231.05C173.72 232.446 173.698 233.853 173.514 235.243C173.211 240.12 174.432 244.928 175.642 249.648C176.071 251.306 177.184 253.403 178.844 252.944C180.24 252.554 180.454 250.692 180.366 249.248C180.063 244.582 179.46 239.94 178.561 235.351C178.073 232.893 177.526 230.231 178.609 227.978C179.137 227.026 179.765 226.133 180.484 225.315C182.963 222.116 185.364 217.025 184.72 212.929C183.246 214.061 182.856 216.587 181.84 218.157C180.51 220.191 178.811 221.961 176.833 223.374V223.374Z" fill="#FF6B00"/>
<path opacity="0.58" d="M176.833 223.374C174.441 225.101 171.464 226.427 168.604 225.705C168.292 226.271 168.77 227.002 169.356 227.275C169.941 227.549 170.634 227.578 171.24 227.802C171.877 228.096 172.428 228.549 172.839 229.118C173.249 229.687 173.505 230.353 173.582 231.05C173.72 232.446 173.698 233.853 173.514 235.243C173.211 240.12 174.432 244.928 175.642 249.648C176.071 251.306 177.184 253.403 178.844 252.944C180.24 252.554 180.454 250.692 180.366 249.248C180.063 244.582 179.46 239.94 178.561 235.351C178.073 232.893 177.526 230.231 178.609 227.978C179.137 227.026 179.765 226.133 180.484 225.315C182.963 222.116 185.364 217.025 184.72 212.929C183.246 214.061 182.856 216.587 181.84 218.157C180.51 220.191 178.811 221.961 176.833 223.374V223.374Z" fill="url(#paint16_linear_103_329)"/>
<path d="M181.207 180.395C182.329 180.326 183.442 180.56 184.564 180.541C184.916 180.541 185.365 180.434 185.414 180.082C185.414 179.969 185.387 179.857 185.336 179.755C185.286 179.654 185.212 179.565 185.121 179.497C183.82 178.281 182.158 177.522 180.387 177.332C178.625 177.142 176.848 177.142 175.086 177.332C174.469 177.311 173.861 177.485 173.349 177.83C171.816 179.088 172.656 182.706 174.676 183.037C175.848 183.223 176.629 182.296 177.527 181.711C178.617 180.959 179.886 180.505 181.207 180.395V180.395Z" fill="#FF6B00"/>
<path opacity="0.58" d="M181.207 180.395C182.329 180.326 183.442 180.56 184.564 180.541C184.916 180.541 185.365 180.434 185.414 180.082C185.414 179.969 185.387 179.857 185.336 179.755C185.286 179.654 185.212 179.565 185.121 179.497C183.82 178.281 182.158 177.522 180.387 177.332C178.625 177.142 176.848 177.142 175.086 177.332C174.469 177.311 173.861 177.485 173.349 177.83C171.816 179.088 172.656 182.706 174.676 183.037C175.848 183.223 176.629 182.296 177.527 181.711C178.617 180.959 179.886 180.505 181.207 180.395V180.395Z" fill="url(#paint17_linear_103_329)"/>
<path d="M196.425 242.704C198.251 238.111 200.394 233.65 202.838 229.353C203.598 228.162 204.189 226.872 204.595 225.52C205.181 223.101 204.439 220.565 203.619 218.205C201.996 213.441 200.076 208.783 197.869 204.259C197.303 203.108 196.259 199.558 194.882 199.471C193.233 199.363 190.461 201.616 189.25 202.582C189.006 202.698 188.791 202.865 188.618 203.073C188.446 203.28 188.32 203.522 188.251 203.783C188.181 204.044 188.169 204.316 188.215 204.582C188.261 204.848 188.365 205.1 188.518 205.322C190.353 209.291 192.628 213.066 194.072 217.181C194.536 218.493 194.863 219.85 195.048 221.229C196.024 228.124 193.467 235.077 190.451 241.378C189.092 243.842 187.984 246.436 187.142 249.121C186.468 251.852 186.634 254.973 188.362 257.187L191.515 254.193L195.37 257.43C196.239 256.455 196.161 254.973 196.112 253.666C195.849 245.932 198.562 238.452 200.495 230.962C201.803 225.91 202.75 220.624 202.203 215.358C201.618 209.75 198.68 204.922 196.229 199.958C196.163 199.816 196.082 199.682 195.985 199.558" fill="url(#paint18_linear_103_329)"/>
<path d="M164.642 145.587C163.417 143.502 161.8 141.674 159.878 140.204C155.622 137.278 149.97 137.775 144.836 138.39C136.88 139.365 127.617 141.189 124.142 148.406C122.697 151.41 122.56 154.843 122.521 158.158C122.199 179.985 124.474 201.889 122.473 223.628C121.819 230.543 120.725 237.555 121.906 244.411C123.088 251.267 127.08 258.123 133.62 260.532C137.632 262.005 142.073 261.644 146.31 261.156C151.438 260.558 156.536 259.807 161.606 258.903C163.656 258.542 165.842 258.074 167.277 256.563C168.712 255.051 169.073 252.769 169.229 250.662C170.137 240.432 167.346 230.894 167.414 220.819C167.463 213.495 171.475 206.941 173.271 199.949C177.858 181.682 174.959 161.465 164.642 145.587Z" fill="#FF6B00"/>
<path opacity="0.58" d="M173.261 199.968C171.504 206.961 167.492 213.524 167.404 220.839C167.346 230.923 170.128 240.451 169.22 250.682C169.034 252.788 168.693 255.051 167.268 256.582C165.842 258.113 163.646 258.533 161.596 258.933C156.52 259.83 151.422 260.578 146.3 261.176C142.22 261.644 137.954 262.005 134.069 260.708C133.913 260.708 133.757 260.61 133.591 260.542C127.07 258.152 123.078 251.287 121.877 244.421C120.677 237.555 121.789 230.562 122.434 223.638C124.493 201.899 122.16 180.004 122.483 158.178C122.483 154.852 122.668 151.41 124.103 148.425C127.031 142.272 134.225 140.038 141.195 138.907C142.405 138.712 143.606 138.556 144.787 138.409C149.922 137.785 155.525 137.288 159.829 140.214C161.758 141.68 163.377 143.513 164.593 145.607C174.96 161.455 177.859 181.672 173.261 199.968Z" fill="url(#paint19_linear_103_329)"/>
<path opacity="0.58" d="M157.164 199.968C155.397 206.961 151.395 213.524 151.307 220.839C151.229 230.923 154.031 240.451 153.123 250.682C152.937 252.788 152.596 255.051 151.171 256.582C149.746 258.113 147.549 258.533 145.509 258.933C141.715 259.583 137.905 260.174 134.079 260.708C133.922 260.708 133.766 260.61 133.6 260.542C127.08 258.152 123.087 251.287 121.887 244.421C120.686 237.555 121.799 230.562 122.443 223.638C124.503 201.899 122.17 180.005 122.492 158.178C122.492 154.852 122.677 151.41 124.112 148.425C127.041 142.272 134.235 140.038 141.204 138.907C142.097 139.244 142.949 139.683 143.742 140.214C145.666 141.683 147.281 143.515 148.496 145.607C158.863 161.455 161.762 181.672 157.164 199.968Z" fill="url(#paint20_linear_103_329)"/>
<path opacity="0.58" d="M140.999 201.626C140.739 201.727 140.517 201.908 140.365 202.143C140.263 202.464 140.284 202.811 140.423 203.118C141.678 207.643 141.651 212.427 140.345 216.937C139.036 221.423 137.314 225.779 135.201 229.947L145.499 228.289C147.832 227.919 150.312 227.548 152.518 228.407C154.88 229.314 156.578 231.479 158.931 232.415C152.505 231.12 145.841 231.706 139.74 234.102C138.326 234.511 137.105 235.41 136.294 236.638C135.958 237.369 135.778 238.163 135.767 238.969C135.396 244.996 137.866 250.789 140.287 256.328C141.849 256.363 143.348 256.955 144.513 257.996C141.52 259.166 138.471 260.197 135.367 261.088C134.127 261.448 132.536 261.673 131.775 260.629C131.513 260.201 131.355 259.716 131.316 259.215C130.046 252.534 129.253 245.772 128.944 238.978C128.651 224.935 132.458 211.096 137.485 198.017C137.639 197.46 137.955 196.961 138.393 196.584C138.763 196.365 139.176 196.229 139.603 196.184L152.196 194.019C153.796 193.746 160.093 192.01 159.37 194.994C158.745 197.627 153.377 197.315 151.561 197.686C147.886 198.54 144.336 199.865 140.999 201.626V201.626Z" fill="url(#paint21_linear_103_329)"/>
<path opacity="0.58" d="M161.127 150.23C158.384 151.78 155.27 154.131 155.719 157.281C155.888 158.15 156.181 158.991 156.588 159.777C158.198 163.438 159.105 167.368 159.263 171.364C157.852 168.241 156.08 165.295 153.982 162.586C152.38 165.776 151.456 169.262 151.268 172.826C151.18 174.494 151.268 176.25 150.448 177.703C149.218 179.985 146.387 180.814 143.83 181.253C141.273 181.692 138.461 182.082 136.685 183.974C136.636 182.267 134.898 181.048 133.21 180.755C131.521 180.463 129.793 180.853 128.075 180.833C126.357 180.814 124.444 180.268 123.634 178.756C122.824 177.244 123.429 175.313 124.161 173.714C125.898 169.976 128.203 166.528 130.994 163.493C134.274 159.904 138.188 156.93 141.341 153.243C143.108 151.185 144.63 148.903 146.544 146.982C148.376 144.944 150.86 143.606 153.572 143.198C155.524 143.022 160.815 142.905 162.416 144.037C164.875 145.802 163.167 149.04 161.127 150.23Z" fill="url(#paint22_linear_103_329)"/>
<path d="M136.685 197.92C137.047 205.244 138.237 212.773 136.09 219.795C135.046 223.209 133.249 226.359 132.351 229.811C130.526 236.843 132.634 244.226 134.548 251.267C135.416 254.407 135.719 258.718 132.713 259.976C131.842 260.261 130.906 260.279 130.026 260.027C129.145 259.775 128.361 259.264 127.773 258.562C126.619 257.143 125.813 255.472 125.421 253.686C122.685 244.063 122.31 233.923 124.328 224.125C125.743 217.299 128.33 210.647 129.277 203.703C130.302 196.194 129.364 188.567 128.369 181.048C128.056 178.717 128.232 175.596 130.507 174.992C131.292 174.858 132.098 174.912 132.859 175.148C138.716 176.523 137.662 177.898 137.086 183.437C136.695 188.254 136.562 193.089 136.685 197.92V197.92Z" fill="#FF6B00"/>
<path opacity="0.58" d="M136.685 197.92C137.047 205.244 138.237 212.773 136.09 219.795C135.046 223.209 133.249 226.359 132.351 229.811C130.526 236.843 132.634 244.226 134.548 251.267C135.416 254.407 135.719 258.718 132.713 259.976C131.842 260.261 130.906 260.279 130.026 260.027C129.145 259.775 128.361 259.264 127.773 258.562C126.619 257.143 125.813 255.472 125.421 253.686C122.685 244.063 122.31 233.923 124.328 224.125C125.743 217.299 128.33 210.647 129.277 203.703C130.302 196.194 129.364 188.567 128.369 181.048C128.056 178.717 128.232 175.596 130.507 174.992C131.292 174.858 132.098 174.912 132.859 175.148C138.716 176.523 137.662 177.898 137.086 183.437C136.695 188.254 136.562 193.089 136.685 197.92V197.92Z" fill="url(#paint23_linear_103_329)"/>
<path d="M203.492 333.004C203.014 333.048 202.564 333.25 202.214 333.579C201.914 334.077 201.82 334.671 201.95 335.237L203.092 345.965C203.229 347.33 203.512 348.891 204.713 349.564C205.205 349.802 205.739 349.941 206.284 349.973C213.508 350.851 220.757 351.407 228.032 351.641C228.882 351.641 229.887 351.641 230.326 350.88C230.543 350.448 230.592 349.951 230.463 349.486C230.217 348.618 229.802 347.807 229.24 347.101C228.679 346.395 227.983 345.806 227.193 345.37C225.67 344.395 223.952 343.79 222.381 342.922C219.635 341.409 217.354 339.177 215.782 336.466C214.65 334.515 213.605 332.077 211.165 331.804C209.047 331.551 205.65 332.536 203.492 333.004Z" fill="#FF6B00"/>
<path d="M160.132 353.25C159.136 353.256 158.165 353.565 157.35 354.138C156.673 354.852 156.265 355.78 156.198 356.761C155.913 358.8 156.093 360.878 156.725 362.837C156.853 363.317 157.09 363.761 157.418 364.134C157.799 364.42 158.236 364.623 158.7 364.729C159.164 364.834 159.646 364.841 160.113 364.749C165.397 364.361 170.516 362.737 175.057 360.009C176.668 359.034 178.327 357.707 178.552 355.845C178.626 355.419 178.539 354.981 178.308 354.616C177.488 353.494 171.768 353.007 170.177 352.665C166.946 352.041 163.373 352.899 160.132 353.25Z" fill="#FF6B00"/>
<path opacity="0.58" d="M203.492 333.004C203.014 333.048 202.564 333.25 202.214 333.579C201.914 334.077 201.82 334.671 201.95 335.237L203.092 345.965C203.229 347.33 203.512 348.891 204.713 349.564C205.205 349.802 205.739 349.941 206.284 349.973C213.508 350.851 220.757 351.407 228.032 351.641C228.882 351.641 229.887 351.641 230.326 350.88C230.543 350.448 230.592 349.951 230.463 349.486C230.217 348.618 229.802 347.807 229.24 347.101C228.679 346.395 227.983 345.806 227.193 345.37C225.67 344.395 223.952 343.79 222.381 342.922C219.635 341.409 217.354 339.177 215.782 336.466C214.65 334.515 213.605 332.077 211.165 331.804C209.047 331.551 205.65 332.536 203.492 333.004Z" fill="url(#paint24_linear_103_329)"/>
<path opacity="0.58" d="M160.132 353.25C159.136 353.256 158.165 353.565 157.35 354.138C156.673 354.852 156.265 355.78 156.198 356.761C155.913 358.8 156.093 360.878 156.725 362.837C156.853 363.317 157.09 363.761 157.418 364.134C157.799 364.42 158.236 364.623 158.7 364.729C159.164 364.834 159.646 364.841 160.113 364.749C165.397 364.361 170.516 362.737 175.057 360.009C176.668 359.034 178.327 357.707 178.552 355.845C178.626 355.419 178.539 354.981 178.308 354.616C177.488 353.494 171.768 353.007 170.177 352.665C166.946 352.041 163.373 352.899 160.132 353.25Z" fill="url(#paint25_linear_103_329)"/>
<path d="M461.709 235.399C461.611 236.931 461.484 238.462 461.367 239.993C459.282 237.768 456.551 236.253 453.558 235.663C452.71 235.443 451.818 235.463 450.981 235.721C449.907 236.285 449.042 237.177 448.511 238.267C444.366 244.97 440.266 251.696 436.212 258.445C434.455 256.221 434.055 253.266 433.586 250.477C433.118 247.688 432.356 244.723 430.209 242.88C428.061 241.037 424.089 241.173 422.956 243.767C422.81 240.959 418.798 239.954 416.358 241.349C413.917 242.743 412.609 245.445 410.94 247.707C408.742 250.632 405.832 252.946 402.487 254.431C399.142 255.916 395.473 256.523 391.827 256.192C389.875 255.997 387.923 255.548 386.058 256.192C383.803 257.002 382.408 259.284 380.26 260.357C375.819 262.57 370.733 258.679 368 254.563C365.528 250.791 362.774 247.212 359.761 243.855L359.908 243.767C362.26 245.718 364.359 248.283 367.014 249.853C373.847 253.891 382.798 250.701 389.28 246.079C395.761 241.456 401.471 235.351 409.056 232.864C416.641 230.377 426.997 233.781 428.013 241.641C436.798 240.52 438.145 225.852 446.862 224.243C453.099 223.101 457.834 229.47 461.289 234.785L461.709 235.399Z" fill="url(#paint26_linear_103_329)"/>
<path opacity="0.58" d="M344.592 265.438C332.097 258.972 320.325 249.58 306.278 248.653C300.646 248.283 294.213 249.092 290.084 245.23C288.073 243.338 287.019 240.646 285.204 238.569C283.388 236.492 280.069 235.136 277.922 236.862C276.721 237.838 276.291 239.447 275.969 240.949L271.948 257.713C271.216 260.737 270.454 263.838 268.668 266.384C266.54 269.407 263.201 271.26 260.068 273.298C248.119 280.914 237.989 291.059 230.394 303.015C267.314 302.857 304.165 299.808 340.609 293.896C347.178 292.833 376.423 290.287 377.517 282.427C378.659 274.088 349.746 268.1 344.592 265.438Z" fill="url(#paint27_linear_103_329)"/>
<path opacity="0.58" d="M440.827 306.294C438.695 327.119 432.763 347.378 423.325 366.068C418.21 376.201 411.885 386.617 412.685 397.94C421.471 399.139 430.012 393.551 434.932 386.237C439.851 378.922 441.843 370.038 443.717 361.407L452.131 380.814C452.922 382.638 453.79 384.559 455.44 385.691C458.3 387.641 462.439 386.188 464.606 383.506C466.773 380.824 467.437 377.264 467.993 373.861C471.575 352.025 473.176 329.91 472.776 307.787C483.523 318.463 493.098 330.256 501.338 342.964C504.325 347.568 507.195 352.376 508.532 357.701C510.113 363.913 509.567 370.447 509.811 376.864C510.421 392.044 515.448 406.716 524.277 419.084C528.435 424.886 533.062 433.956 527.049 437.896C525.547 438.738 523.884 439.253 522.169 439.408C495.901 443.543 384.534 459.089 388.536 419.688C390.371 401.899 406.78 379 412.197 360.86C418.132 340.994 423.374 319.431 440.827 306.294Z" fill="url(#paint28_linear_103_329)"/>
<path opacity="0.58" d="M233.195 412.108L242.624 422.094C240.839 427.286 240.203 432.803 240.76 438.264C240.775 439.386 241.152 440.474 241.834 441.365C242.424 441.918 243.127 442.337 243.893 442.594C249.526 444.925 257.003 446.846 260.898 442.165C262.655 440.049 263.553 436.684 266.266 436.216C267.376 436.116 268.491 436.314 269.497 436.791C279.918 440.705 289.583 446.386 298.069 453.586C286.997 453.57 275.959 454.8 265.163 457.253C258.779 458.696 252.474 460.568 246.217 462.441C237.06 465.172 202.427 481.946 212.052 461.466C216.796 451.43 221.911 450.679 223.521 438.722C224.839 429.155 227.748 420.153 233.195 412.108Z" fill="url(#paint29_linear_103_329)"/>
<path d="M162.026 144.544C158.121 147.879 154.275 148.601 151.649 153.663C149.474 158.219 148.49 163.252 148.789 168.292C148.848 170.701 148.965 173.49 147.14 175.06C146.237 175.728 145.191 176.175 144.084 176.367C139.466 177.455 134.719 177.895 129.979 177.674C127.399 177.64 124.85 177.107 122.473 176.103V176.103C121.254 175.567 120.157 174.787 119.251 173.812C116.606 170.886 116.225 166.624 116.177 162.694C116.118 157.193 116.567 151.351 119.749 146.855C121.985 143.686 125.391 141.501 128.935 139.892C137.497 136.008 147.096 135.032 156.266 137.112V137.112C159.878 137.961 166.213 140.926 162.026 144.544Z" fill="#FF6B00"/>
<path opacity="0.58" d="M158.941 143.53C155.095 146.845 151.19 147.567 148.574 152.648C146.379 157.2 145.371 162.232 145.646 167.277C145.724 169.686 145.822 172.466 143.996 174.046C143.097 174.71 142.054 175.154 140.951 175.343C136.321 176.438 131.56 176.881 126.807 176.659C125.32 176.602 123.841 176.419 122.385 176.113V176.113C121.166 175.577 120.07 174.797 119.164 173.821C116.518 170.895 116.137 166.634 116.089 162.703C116.03 157.203 116.479 151.361 119.661 146.865C121.897 143.695 125.303 141.511 128.847 139.902C137.409 136.018 147.009 135.042 156.179 137.122V137.122C159.341 138.526 162.055 140.828 158.941 143.53Z" fill="url(#paint30_linear_103_329)"/>
<path d="M158.131 190.674C156.12 190.481 154.098 190.419 152.079 190.489C148.33 190.752 144.758 192.127 141.253 193.483C139.952 193.906 138.74 194.567 137.681 195.433C137.445 195.619 137.249 195.851 137.105 196.114C136.961 196.377 136.871 196.666 136.841 196.965C136.841 198.447 138.911 198.847 140.375 198.603C146.144 197.628 151.952 194.38 157.516 196.194C160.015 197.013 162.133 198.798 164.661 199.52C166.258 199.905 167.9 200.069 169.542 200.007C170.683 200.096 171.829 199.933 172.9 199.53C173.651 199.128 174.296 198.555 174.783 197.856C175.27 197.158 175.585 196.355 175.701 195.511C177.204 187.29 163.295 191.006 158.131 190.674Z" fill="#FF6B00"/>
<path d="M153.787 223.531C151.776 223.34 149.754 223.282 147.735 223.355C143.987 223.609 140.414 224.984 136.919 226.339C135.616 226.766 134.402 227.427 133.337 228.29C133.102 228.475 132.907 228.707 132.764 228.97C132.622 229.233 132.534 229.523 132.507 229.821C132.507 231.303 134.567 231.703 136.031 231.46C141.81 230.484 147.618 227.246 153.172 229.06C155.681 229.87 157.789 231.655 160.317 232.386C161.915 232.763 163.557 232.924 165.198 232.864C166.341 232.951 167.49 232.791 168.566 232.396C169.315 231.991 169.959 231.415 170.444 230.715C170.929 230.016 171.242 229.211 171.357 228.368C172.871 220.156 158.951 223.872 153.787 223.531Z" fill="#FF6B00"/>
<path d="M123.068 196.116C121.97 196.104 120.882 196.327 119.876 196.769C119.379 197.001 118.955 197.362 118.647 197.816C118.339 198.269 118.16 198.797 118.129 199.344C118.194 200.066 118.432 200.761 118.822 201.372C118.908 201.572 119.034 201.751 119.193 201.899C119.417 202.02 119.665 202.091 119.92 202.106C120.175 202.121 120.43 202.08 120.667 201.987C122.636 201.529 124.675 201.459 126.67 201.782C127.056 201.889 127.465 201.889 127.851 201.782C129.179 201.255 130.184 197.978 129.228 196.906C128.115 195.589 124.484 196.067 123.068 196.116Z" fill="#FF6B00"/>
<path d="M116.568 226.115C116.05 226.886 115.825 227.816 115.933 228.738V231.118L122.844 231.03C123.078 231.057 123.314 230.998 123.508 230.864C123.676 230.685 123.771 230.448 123.771 230.201C123.986 228.465 124.65 226.008 122.883 224.993C121.595 224.252 117.544 225.013 116.568 226.115Z" fill="#FF6B00"/>
<path opacity="0.58" d="M158.131 190.674C156.12 190.481 154.098 190.419 152.079 190.489C148.33 190.752 144.758 192.127 141.253 193.483C139.952 193.906 138.74 194.567 137.681 195.433C137.445 195.619 137.249 195.851 137.105 196.114C136.961 196.377 136.871 196.666 136.841 196.965C136.841 198.447 138.911 198.847 140.375 198.603C146.144 197.628 151.952 194.38 157.516 196.194C160.015 197.013 162.133 198.798 164.661 199.52C166.258 199.905 167.9 200.069 169.542 200.007C170.683 200.096 171.829 199.933 172.9 199.53C173.651 199.128 174.296 198.555 174.783 197.856C175.27 197.158 175.585 196.355 175.701 195.511C177.204 187.29 163.295 191.006 158.131 190.674Z" fill="url(#paint31_linear_103_329)"/>
<path opacity="0.58" d="M153.787 223.531C151.776 223.34 149.754 223.282 147.735 223.355C143.987 223.609 140.414 224.984 136.919 226.339C135.616 226.766 134.402 227.427 133.337 228.29C133.102 228.475 132.907 228.707 132.764 228.97C132.622 229.233 132.534 229.523 132.507 229.821C132.507 231.303 134.567 231.703 136.031 231.46C141.81 230.484 147.618 227.246 153.172 229.06C155.681 229.87 157.789 231.655 160.317 232.386C161.915 232.763 163.557 232.924 165.198 232.864C166.341 232.951 167.49 232.791 168.566 232.396C169.315 231.991 169.959 231.415 170.444 230.715C170.929 230.016 171.242 229.211 171.357 228.368C172.871 220.156 158.951 223.872 153.787 223.531Z" fill="url(#paint32_linear_103_329)"/>
<path opacity="0.58" d="M123.068 196.116C121.97 196.104 120.882 196.327 119.876 196.769C119.379 197.001 118.955 197.362 118.647 197.816C118.339 198.269 118.16 198.797 118.129 199.344C118.194 200.066 118.432 200.761 118.822 201.372C118.908 201.572 119.034 201.751 119.193 201.899C119.417 202.02 119.665 202.091 119.92 202.106C120.175 202.121 120.43 202.08 120.667 201.987C122.636 201.529 124.675 201.459 126.67 201.782C127.056 201.889 127.465 201.889 127.851 201.782C129.179 201.255 130.184 197.978 129.228 196.906C128.115 195.589 124.484 196.067 123.068 196.116Z" fill="url(#paint33_linear_103_329)"/>
<path opacity="0.58" d="M116.568 226.115C116.05 226.886 115.825 227.816 115.933 228.738V231.118L122.844 231.03C123.078 231.057 123.314 230.998 123.508 230.864C123.676 230.685 123.771 230.448 123.771 230.201C123.986 228.465 124.65 226.008 122.883 224.993C121.595 224.252 117.544 225.013 116.568 226.115Z" fill="url(#paint34_linear_103_329)"/>
<path opacity="0.58" d="M163.998 270.723C163.651 270.277 163.143 269.983 162.583 269.904C161.607 269.904 161.158 271.123 161.05 272.099C160.679 275.434 161.138 278.818 160.835 282.163C160.445 286.454 158.815 290.57 158.61 294.842C158.539 295.453 158.62 296.073 158.844 296.646C159.527 298.138 161.538 298.343 163.178 298.236C165.975 298.06 168.752 297.639 171.475 296.978C171.999 296.902 172.49 296.679 172.891 296.334C173.296 295.806 173.51 295.156 173.496 294.491C173.838 290.785 175.829 283.948 174.072 280.661C172.032 276.877 166.722 274.088 163.998 270.723Z" fill="url(#paint35_linear_103_329)"/>
</g>
<defs>
<linearGradient id="paint0_linear_103_329" x1="262.031" y1="350.656" x2="278.45" y2="15.9053" gradientUnits="userSpaceOnUse">
<stop offset="0.01"/>
<stop offset="0.13" stop-opacity="0.69"/>
<stop offset="1" stop-opacity="0"/>
</linearGradient>
<linearGradient id="paint1_linear_103_329" x1="327.881" y1="369.703" x2="373.018" y2="149.941" gradientUnits="userSpaceOnUse">
<stop offset="0.01"/>
<stop offset="0.13" stop-opacity="0.69"/>
<stop offset="1" stop-opacity="0"/>
</linearGradient>
<linearGradient id="paint2_linear_103_329" x1="138.442" y1="350.286" x2="146.647" y2="-57.3749" gradientUnits="userSpaceOnUse">
<stop offset="0.02" stop-color="white" stop-opacity="0"/>
<stop offset="0.58" stop-color="white" stop-opacity="0.39"/>
<stop offset="0.68" stop-color="white" stop-opacity="0.68"/>
<stop offset="1" stop-color="white"/>
</linearGradient>
<linearGradient id="paint3_linear_103_329" x1="213.839" y1="253.793" x2="223.076" y2="607.024" gradientUnits="userSpaceOnUse">
<stop offset="0.01"/>
<stop offset="0.13" stop-opacity="0.69"/>
<stop offset="1" stop-opacity="0"/>
</linearGradient>
<linearGradient id="paint4_linear_103_329" x1="84.8036" y1="491.494" x2="183.314" y2="209.403" gradientUnits="userSpaceOnUse">
<stop offset="0.01"/>
<stop offset="0.13" stop-opacity="0.69"/>
<stop offset="1" stop-opacity="0"/>
</linearGradient>
<linearGradient id="paint5_linear_103_329" x1="284.931" y1="346.735" x2="715.168" y2="463.307" gradientUnits="userSpaceOnUse">
<stop offset="0.01"/>
<stop offset="0.13" stop-opacity="0.69"/>
<stop offset="1" stop-opacity="0"/>
</linearGradient>
<linearGradient id="paint6_linear_103_329" x1="252.162" y1="293.876" x2="499.272" y2="466.256" gradientUnits="userSpaceOnUse">
<stop offset="0.01"/>
<stop offset="0.13" stop-opacity="0.69"/>
<stop offset="1" stop-opacity="0"/>
</linearGradient>
<linearGradient id="paint7_linear_103_329" x1="151.494" y1="326.041" x2="168.342" y2="326.041" gradientUnits="userSpaceOnUse">
<stop stop-color="#ECC4D7"/>
<stop offset="0.42" stop-color="#EFD4D1"/>
<stop offset="0.6" stop-color="#F0DCCE"/>
<stop offset="1" stop-color="#F2EAC9"/>
</linearGradient>
<linearGradient id="paint8_linear_103_329" x1="194.149" y1="307.686" x2="213.067" y2="307.686" gradientUnits="userSpaceOnUse">
<stop stop-color="#ECC4D7"/>
<stop offset="0.42" stop-color="#EFD4D1"/>
<stop offset="0.6" stop-color="#F0DCCE"/>
<stop offset="1" stop-color="#F2EAC9"/>
</linearGradient>
<linearGradient id="paint9_linear_103_329" x1="182.29" y1="258.806" x2="417.658" y2="-222.614" gradientUnits="userSpaceOnUse">
<stop offset="0.01"/>
<stop offset="0.13" stop-opacity="0.69"/>
<stop offset="1" stop-opacity="0"/>
</linearGradient>
<linearGradient id="paint10_linear_103_329" x1="172.49" y1="172.856" x2="184.614" y2="172.856" gradientUnits="userSpaceOnUse">
<stop stop-color="#ECC4D7"/>
<stop offset="0.42" stop-color="#EFD4D1"/>
<stop offset="0.6" stop-color="#F0DCCE"/>
<stop offset="1" stop-color="#F2EAC9"/>
</linearGradient>
<linearGradient id="paint11_linear_103_329" x1="164.495" y1="162.03" x2="218.797" y2="166.837" gradientUnits="userSpaceOnUse">
<stop offset="0.01"/>
<stop offset="0.13" stop-opacity="0.69"/>
<stop offset="1" stop-opacity="0"/>
</linearGradient>
<linearGradient id="paint12_linear_103_329" x1="117.855" y1="387.794" x2="380.716" y2="664.252" gradientUnits="userSpaceOnUse">
<stop offset="0.01"/>
<stop offset="0.13" stop-opacity="0.69"/>
<stop offset="1" stop-opacity="0"/>
</linearGradient>
<linearGradient id="paint13_linear_103_329" x1="84.1985" y1="383.659" x2="349.079" y2="513.009" gradientUnits="userSpaceOnUse">
<stop offset="0.01"/>
<stop offset="0.13" stop-opacity="0.69"/>
<stop offset="1" stop-opacity="0"/>
</linearGradient>
<linearGradient id="paint14_linear_103_329" x1="149.609" y1="213.095" x2="241.423" y2="220.989" gradientUnits="userSpaceOnUse">
<stop offset="0.01"/>
<stop offset="0.13" stop-opacity="0.69"/>
<stop offset="1" stop-opacity="0"/>
</linearGradient>
<linearGradient id="paint15_linear_103_329" x1="145.275" y1="206.717" x2="219.044" y2="224.321" gradientUnits="userSpaceOnUse">
<stop offset="0.01"/>
<stop offset="0.13" stop-opacity="0.69"/>
<stop offset="1" stop-opacity="0"/>
</linearGradient>
<linearGradient id="paint16_linear_103_329" x1="169.57" y1="224.359" x2="229.487" y2="268.395" gradientUnits="userSpaceOnUse">
<stop offset="0.01"/>
<stop offset="0.13" stop-opacity="0.69"/>
<stop offset="1" stop-opacity="0"/>
</linearGradient>
<linearGradient id="paint17_linear_103_329" x1="173.876" y1="180.268" x2="194.15" y2="179.007" gradientUnits="userSpaceOnUse">
<stop offset="0.01"/>
<stop offset="0.13" stop-opacity="0.69"/>
<stop offset="1" stop-opacity="0"/>
</linearGradient>
<linearGradient id="paint18_linear_103_329" x1="186.79" y1="228.446" x2="204.8" y2="228.446" gradientUnits="userSpaceOnUse">
<stop stop-color="#ECC4D7"/>
<stop offset="0.42" stop-color="#EFD4D1"/>
<stop offset="0.6" stop-color="#F0DCCE"/>
<stop offset="1" stop-color="#F2EAC9"/>
</linearGradient>
<linearGradient id="paint19_linear_103_329" x1="63.0359" y1="180.278" x2="370.655" y2="252.96" gradientUnits="userSpaceOnUse">
<stop offset="0.01"/>
<stop offset="0.13" stop-opacity="0.69"/>
<stop offset="1" stop-opacity="0"/>
</linearGradient>
<linearGradient id="paint20_linear_103_329" x1="74.2317" y1="184.832" x2="310.942" y2="240.77" gradientUnits="userSpaceOnUse">
<stop offset="0.01"/>
<stop offset="0.13" stop-opacity="0.69"/>
<stop offset="1" stop-opacity="0"/>
</linearGradient>
<linearGradient id="paint21_linear_103_329" x1="128.925" y1="227.285" x2="159.429" y2="227.285" gradientUnits="userSpaceOnUse">
<stop offset="0.01"/>
<stop offset="0.13" stop-opacity="0.69"/>
<stop offset="1" stop-opacity="0"/>
</linearGradient>
<linearGradient id="paint22_linear_103_329" x1="123.917" y1="147.128" x2="204.942" y2="208.581" gradientUnits="userSpaceOnUse">
<stop offset="0.01"/>
<stop offset="0.13" stop-opacity="0.69"/>
<stop offset="1" stop-opacity="0"/>
</linearGradient>
<linearGradient id="paint23_linear_103_329" x1="103.028" y1="216.587" x2="245.544" y2="221.384" gradientUnits="userSpaceOnUse">
<stop offset="0.01"/>
<stop offset="0.13" stop-opacity="0.69"/>
<stop offset="1" stop-opacity="0"/>
</linearGradient>
<linearGradient id="paint24_linear_103_329" x1="192.052" y1="343.868" x2="399.439" y2="327.406" gradientUnits="userSpaceOnUse">
<stop offset="0.01"/>
<stop offset="0.13" stop-opacity="0.69"/>
<stop offset="1" stop-opacity="0"/>
</linearGradient>
<linearGradient id="paint25_linear_103_329" x1="161.03" y1="361.803" x2="301.161" y2="237.538" gradientUnits="userSpaceOnUse">
<stop offset="0.01"/>
<stop offset="0.13" stop-opacity="0.69"/>
<stop offset="1" stop-opacity="0"/>
</linearGradient>
<linearGradient id="paint26_linear_103_329" x1="411.867" y1="274.371" x2="409.129" y2="190.167" gradientUnits="userSpaceOnUse">
<stop offset="0.02" stop-color="white" stop-opacity="0"/>
<stop offset="0.58" stop-color="white" stop-opacity="0.39"/>
<stop offset="0.68" stop-color="white" stop-opacity="0.68"/>
<stop offset="1" stop-color="white"/>
</linearGradient>
<linearGradient id="paint27_linear_103_329" x1="248.442" y1="228.836" x2="351.116" y2="345.305" gradientUnits="userSpaceOnUse">
<stop offset="0.01"/>
<stop offset="0.13" stop-opacity="0.69"/>
<stop offset="1" stop-opacity="0"/>
</linearGradient>
<linearGradient id="paint28_linear_103_329" x1="532.242" y1="577.037" x2="331.106" y2="129.189" gradientUnits="userSpaceOnUse">
<stop offset="0.01"/>
<stop offset="0.13" stop-opacity="0.69"/>
<stop offset="1" stop-opacity="0"/>
</linearGradient>
<linearGradient id="paint29_linear_103_329" x1="232.395" y1="356.274" x2="266.257" y2="518.531" gradientUnits="userSpaceOnUse">
<stop offset="0.01"/>
<stop offset="0.13" stop-opacity="0.69"/>
<stop offset="1" stop-opacity="0"/>
</linearGradient>
<linearGradient id="paint30_linear_103_329" x1="115.864" y1="143.081" x2="192.857" y2="187.476" gradientUnits="userSpaceOnUse">
<stop offset="0.01"/>
<stop offset="0.13" stop-opacity="0.69"/>
<stop offset="1" stop-opacity="0"/>
</linearGradient>
<linearGradient id="paint31_linear_103_329" x1="149.063" y1="174.046" x2="193.074" y2="303.448" gradientUnits="userSpaceOnUse">
<stop offset="0.01"/>
<stop offset="0.13" stop-opacity="0.69"/>
<stop offset="1" stop-opacity="0"/>
</linearGradient>
<linearGradient id="paint32_linear_103_329" x1="135.143" y1="178.776" x2="179.145" y2="308.188" gradientUnits="userSpaceOnUse">
<stop offset="0.01"/>
<stop offset="0.13" stop-opacity="0.69"/>
<stop offset="1" stop-opacity="0"/>
</linearGradient>
<linearGradient id="paint33_linear_103_329" x1="118.949" y1="184.286" x2="162.961" y2="313.688" gradientUnits="userSpaceOnUse">
<stop offset="0.01"/>
<stop offset="0.13" stop-opacity="0.69"/>
<stop offset="1" stop-opacity="0"/>
</linearGradient>
<linearGradient id="paint34_linear_103_329" x1="106.269" y1="188.597" x2="150.281" y2="317.999" gradientUnits="userSpaceOnUse">
<stop offset="0.01"/>
<stop offset="0.13" stop-opacity="0.69"/>
<stop offset="1" stop-opacity="0"/>
</linearGradient>
<linearGradient id="paint35_linear_103_329" x1="188.567" y1="283.314" x2="67.0682" y2="286.978" gradientUnits="userSpaceOnUse">
<stop offset="0.01"/>
<stop offset="0.13" stop-opacity="0.69"/>
<stop offset="1" stop-opacity="0"/>
</linearGradient>
</defs>
</svg>
