<svg width="103" height="27" viewBox="0 0 103 27" fill="none" xmlns="http://www.w3.org/2000/svg">
<path d="M22.724 8.18C22.004 6.284 20.804 4.772 19.124 3.644C17.468 2.516 15.5 1.952 13.22 1.952C11.228 1.952 9.428 2.42 7.82 3.356C6.212 4.292 4.94 5.624 4.004 7.352C3.068 9.08 2.6 11.096 2.6 13.4C2.6 15.704 3.068 17.72 4.004 19.448C4.94 21.176 6.212 22.508 7.82 23.444C9.428 24.356 11.228 24.812 13.22 24.812C15.14 24.812 16.88 24.38 18.44 23.516C20 22.652 21.248 21.428 22.184 19.844C23.12 18.236 23.636 16.364 23.732 14.228H12.464V12.86H25.388V13.94C25.316 16.292 24.752 18.404 23.696 20.276C22.64 22.148 21.2 23.612 19.376 24.668C17.552 25.724 15.5 26.252 13.22 26.252C10.892 26.252 8.792 25.712 6.92 24.632C5.048 23.528 3.584 22.004 2.528 20.06C1.472 18.092 0.944 15.872 0.944 13.4C0.944 10.904 1.472 8.684 2.528 6.74C3.584 4.772 5.048 3.248 6.92 2.168C8.792 1.064 10.892 0.512 13.22 0.512C15.932 0.512 18.272 1.196 20.24 2.564C22.232 3.908 23.684 5.78 24.596 8.18H22.724ZM45.3359 19.52H33.3479L30.9359 26H29.1719L38.4599 1.304H40.2599L49.5119 26H47.7479L45.3359 19.52ZM44.8319 18.152L39.3599 3.428L33.8519 18.152H44.8319ZM55.9182 0.727999V26H54.2982V0.727999H55.9182ZM80.6488 26H79.0288L64.1968 3.392V26H62.5768V0.763999H64.1968L79.0288 23.3V0.763999H80.6488V26ZM94.6166 26.252C92.9846 26.252 91.5566 25.964 90.3326 25.388C89.1086 24.812 88.1486 24.032 87.4526 23.048C86.7806 22.064 86.3966 20.972 86.3006 19.772H87.9926C88.1846 21.092 88.7966 22.268 89.8286 23.3C90.8846 24.332 92.4806 24.848 94.6166 24.848C95.8646 24.848 96.9446 24.62 97.8566 24.164C98.7926 23.708 99.5126 23.084 100.017 22.292C100.521 21.5 100.773 20.624 100.773 19.664C100.773 18.44 100.473 17.468 99.8726 16.748C99.2966 16.028 98.5646 15.488 97.6766 15.128C96.8126 14.768 95.6366 14.384 94.1486 13.976C92.5166 13.544 91.1966 13.112 90.1886 12.68C89.2046 12.248 88.3646 11.588 87.6686 10.7C86.9966 9.788 86.6606 8.552 86.6606 6.992C86.6606 5.792 86.9726 4.7 87.5966 3.716C88.2446 2.708 89.1566 1.916 90.3326 1.34C91.5086 0.763998 92.8646 0.475998 94.4006 0.475998C96.6326 0.475998 98.4326 1.028 99.8006 2.132C101.169 3.236 101.985 4.592 102.249 6.2H100.521C100.377 5.552 100.053 4.892 99.5486 4.22C99.0686 3.548 98.3726 2.996 97.4606 2.564C96.5726 2.108 95.5046 1.88 94.2566 1.88C92.5766 1.88 91.1606 2.348 90.0086 3.284C88.8566 4.196 88.2806 5.42 88.2806 6.956C88.2806 8.18 88.5806 9.164 89.1806 9.908C89.7806 10.628 90.5126 11.18 91.3766 11.564C92.2646 11.924 93.4526 12.296 94.9406 12.68C96.5966 13.136 97.9046 13.58 98.8646 14.012C99.8486 14.42 100.677 15.08 101.349 15.992C102.045 16.88 102.393 18.092 102.393 19.628C102.393 20.756 102.093 21.824 101.493 22.832C100.893 23.84 100.005 24.668 98.8286 25.316C97.6766 25.94 96.2726 26.252 94.6166 26.252Z" fill="#F87102"/>
</svg>
